<svg width="110" height="193" fill="none" xmlns="http://www.w3.org/2000/svg"><path d="M74.02 108.36L67.1 96.38m7.15-71.46h-2.97" stroke="#B2DBF7" stroke-width="1.98" stroke-linecap="round" stroke-linejoin="round"/><path d="M68.73 24.92h-4.84" stroke="#B2DBF7" stroke-width="1.98" stroke-linecap="round" stroke-linejoin="round" stroke-dasharray="1.02 0.76 2.55 1.02"/><path d="M63.38 24.92h-2.96" stroke="#B2DBF7" stroke-width="1.98" stroke-linecap="round" stroke-linejoin="round"/><path d="M3.71 62.47l2.42-4.2" stroke="#B2DBF7" stroke-width="1.98" stroke-linecap="round" stroke-linejoin="round" stroke-dasharray="1.02 0.76 2.55 1.02"/><path d="M6.38 57.83l1.49-2.57m41.94 11.98l-1.48-2.57" stroke="#B2DBF7" stroke-width="1.98" stroke-linecap="round" stroke-linejoin="round"/><path d="M47.06 62.47l-2.42-4.2" stroke="#B2DBF7" stroke-width="1.98" stroke-linecap="round" stroke-linejoin="round" stroke-dasharray="1.02 0.76 2.55 1.02"/><path d="M44.38 57.83l-1.48-2.57m31.99-17.07l7.65-13.27-7.65-13.26M38.65 74.43h15.31l7.66-13.27" stroke="#B2DBF7" stroke-width="1.98" stroke-linecap="round" stroke-linejoin="round"/><path d="M91.74 4.65H18.26c-7.655 0-13.86 6.205-13.86 13.86v158.13c0 7.655 6.205 13.86 13.86 13.86h73.48c7.655 0 13.86-6.205 13.86-13.86V18.51c0-7.655-6.205-13.86-13.86-13.86z" fill="#E5F2FF"/><path d="M91.73 4.65h-14A13.86 13.86 0 0191.6 18.5v158.14a13.863 13.863 0 01-13.86 13.86h14a13.856 13.856 0 009.803-4.057 13.828 13.828 0 004.057-9.803V18.5a13.855 13.855 0 00-4.064-9.8 13.846 13.846 0 00-9.806-4.05z" fill="#B2DBF7"/><path d="M11.73 176.64V18.5A13.85 13.85 0 0125.58 4.65h-7.33A13.85 13.85 0 004.4 18.5v158.14a13.845 13.845 0 008.547 12.805 13.862 13.862 0 005.303 1.055h7.33a13.862 13.862 0 01-9.797-4.06 13.844 13.844 0 01-4.053-9.8z" fill="#fff"/><path d="M23.93 4.65L26.08 8a12.16 12.16 0 0010.27 5.64h37.29A12.18 12.18 0 0083.91 8l2.15-3.37" fill="#0480FE"/><path d="M34.89 180.25H75.1" stroke="#fff" stroke-width="1.98" stroke-linecap="round" stroke-linejoin="round"/><path d="M82.9 24.51H27.08a5 5 0 00-5 5v6.22a5 5 0 005 5H82.9a5 5 0 005-5v-6.22a5 5 0 00-5-5z" fill="#01CC9B"/><path d="M15.01 31.08a3.33 3.33 0 100-6.66 3.33 3.33 0 000 6.66z" fill="#B2DBF7"/><path d="M94.98 55.3a3.33 3.33 0 100-6.66 3.33 3.33 0 000 6.66z" fill="#fff"/><path d="M25.58 27.75h58.2m-58.2 4.87h41.28m-41.28 4.86h50.88" stroke="#B2DBF7" stroke-width=".99" stroke-linecap="round" stroke-linejoin="round"/><path d="M82.9 91.28H27.08a5 5 0 00-5 5v6.22a5 5 0 005 5H82.9a5 5 0 005-5v-6.22a5 5 0 00-5-5z" fill="#01CC9B"/><path d="M15.01 97.85a3.33 3.33 0 100-6.66 3.33 3.33 0 000 6.66z" fill="#B2DBF7"/><path d="M25.58 94.52h47.47m-47.47 4.87h41.28m-41.28 4.87h55.46" stroke="#B2DBF7" stroke-width=".99" stroke-linecap="round" stroke-linejoin="round"/><path d="M82.9 111.25H27.08a5 5 0 00-5 5v6.22a5 5 0 005 5H82.9a5 5 0 005-5v-6.22a5 5 0 00-5-5z" fill="#01CC9B"/><path d="M25.58 114.49H45.7m-20.12 4.87H83.7m-58.12 4.86h50.88m6.44-75.59H27.08a5 5 0 00-5 5v6.22a5 5 0 005 5H82.9a5 5 0 005-5v-6.22a5 5 0 00-5-5z" stroke="#B2DBF7" stroke-width=".99" stroke-linecap="round" stroke-linejoin="round"/><path d="M25.58 51.88h35.2m-35.2 4.86h53.17m-53.17 4.87h40.24" stroke="#fff" stroke-width=".99" stroke-linecap="round" stroke-linejoin="round"/><path d="M94.98 140.37a3.33 3.33 0 100-6.66 3.33 3.33 0 000 6.66z" fill="#fff"/><path d="M82.9 133.71H27.08a5 5 0 00-5 5v6.22a5 5 0 005 5H82.9a5 5 0 005-5v-6.22a5 5 0 00-5-5z" stroke="#B2DBF7" stroke-width=".99" stroke-linecap="round" stroke-linejoin="round"/><path d="M25.58 136.95h35.2m-35.2 4.87h53.17m-53.17 4.86h40.24" stroke="#fff" stroke-width=".99" stroke-linecap="round" stroke-linejoin="round"/><path d="M82.9 68.72H27.08a5 5 0 00-5 5v6.22a5 5 0 005 5H82.9a5 5 0 005-5v-6.22a5 5 0 00-5-5z" stroke="#B2DBF7" stroke-width=".99" stroke-linecap="round" stroke-linejoin="round"/><path d="M25.58 71.96h48.77m-48.77 4.87h33.63M25.58 81.7h44.25" stroke="#fff" stroke-width=".99" stroke-linecap="round" stroke-linejoin="round"/><path d="M87.9 159.35H22.08v9.03H87.9v-9.03z" fill="#fff"/><path d="M87.91 171.22H76.46v5.42h11.45v-5.42z" fill="#B2DBF7"/><path d="M91.74 4.65H18.26c-7.655 0-13.86 6.205-13.86 13.86v158.13c0 7.655 6.205 13.86 13.86 13.86h73.48c7.655 0 13.86-6.205 13.86-13.86V18.51c0-7.655-6.205-13.86-13.86-13.86z" stroke="#0480FE" stroke-width="3.95" stroke-linecap="round" stroke-linejoin="round"/></svg>