<svg width="573" height="347" fill="none" xmlns="http://www.w3.org/2000/svg"><g filter="url(#filter0_b)"><rect width="573" height="347" rx="22.132" fill="#DADEE9"/></g><path d="M15.489 296.847c0-.657.533-1.191 1.19-1.191h2.382a1.191 1.191 0 010 2.382h-2.382a1.19 1.19 0 01-1.19-1.191zm207.206-10.122a1.786 1.786 0 113.572 0v20.244a1.787 1.787 0 11-3.572 0v-20.244zm-103.603 4.168a2.382 2.382 0 114.763 0v11.909a2.381 2.381 0 01-4.763 0v-11.909zm-52.397-5.954a2.382 2.382 0 014.763 0v23.817a2.381 2.381 0 01-4.763 0v-23.817zm103.603 11.908c0-.657.533-1.191 1.191-1.191h2.381a1.191 1.191 0 010 2.382h-2.381a1.19 1.19 0 01-1.191-1.191zM41.687 278.389a1.786 1.786 0 013.573 0v36.916a1.787 1.787 0 11-3.573 0v-36.916zm207.206 0a1.786 1.786 0 013.573 0v36.916a1.787 1.787 0 11-3.573 0v-36.916zm-103.603 5.954a1.786 1.786 0 013.573 0v25.008a1.786 1.786 0 01-3.573 0v-25.008zm-52.397 12.504c0-.657.533-1.191 1.191-1.191h2.382a1.191 1.191 0 010 2.382h-2.382a1.19 1.19 0 01-1.19-1.191zm103.603-9.526a2.381 2.381 0 114.764 0v19.053a2.383 2.383 0 01-4.764 0v-19.053zm-175.053 8.335a2.381 2.381 0 014.763 0v2.382a2.382 2.382 0 11-4.763 0v-2.382zm207.206-16.671a2.381 2.381 0 114.763 0v35.725a2.382 2.382 0 11-4.763 0v-35.725zm-103.603 3.572a2.381 2.381 0 114.763 0v28.58a2.381 2.381 0 11-4.763 0v-28.58zM73.84 295.656a2.381 2.381 0 014.763 0v2.382a2.382 2.382 0 11-4.763 0v-2.382zm103.603-.595a1.786 1.786 0 113.572 0v3.573a1.786 1.786 0 11-3.572 0v-3.573zm-129.802-4.168a2.382 2.382 0 014.764 0v11.909a2.381 2.381 0 01-4.764 0v-11.909zm207.206 0a2.383 2.383 0 014.764 0v11.909a2.382 2.382 0 01-4.764 0v-11.909zm-103.603-11.908a2.382 2.382 0 014.764 0v35.725a2.383 2.383 0 01-4.764 0v-35.725zm-51.206 14.885a1.786 1.786 0 013.573 0v5.954a1.787 1.787 0 11-3.573 0v-5.954zm103.603-15.481a1.786 1.786 0 013.573 0v36.916a1.787 1.787 0 11-3.573 0v-36.916zM28.588 290.298a1.787 1.787 0 113.572 0v13.099a1.786 1.786 0 01-3.572 0v-13.099zm207.206 0a1.787 1.787 0 113.572 0v13.099a1.786 1.786 0 11-3.572 0v-13.099zm-103.603 0a1.787 1.787 0 113.572 0v13.099a1.786 1.786 0 11-3.572 0v-13.099zm-52.397 1.786a2.382 2.382 0 014.763 0v9.527a2.381 2.381 0 01-4.763 0v-9.527zm103.603 2.382a2.381 2.381 0 114.763 0v4.763a2.382 2.382 0 11-4.763 0v-4.763zM54.786 284.343a1.786 1.786 0 013.573 0v25.008a1.786 1.786 0 11-3.573 0v-25.008zm206.016 11.313a2.381 2.381 0 114.763 0v2.382a2.381 2.381 0 11-4.763 0v-2.382zm-103.604-8.335a2.382 2.382 0 014.764 0v19.053a2.382 2.382 0 01-4.764 0v-19.053zm-51.206-8.336a2.382 2.382 0 014.764 0v35.725a2.383 2.383 0 01-4.764 0v-35.725zm103.603 2.381a2.382 2.382 0 014.764 0v30.962a2.382 2.382 0 01-4.764 0v-30.962zm-175.053 5.955a2.382 2.382 0 114.763 0v19.053a2.382 2.382 0 01-4.763 0v-19.053zm207.206 0a2.381 2.381 0 114.763 0v19.053a2.382 2.382 0 11-4.763 0v-19.053zm-103.603 0a2.381 2.381 0 114.763 0v19.053a2.382 2.382 0 11-4.763 0v-19.053zm-51.206 9.526c0-.657.533-1.191 1.19-1.191h1.192a1.191 1.191 0 010 2.382H88.13a1.19 1.19 0 01-1.191-1.191zm103.603-6.549a1.787 1.787 0 113.572 0v13.099a1.786 1.786 0 11-3.572 0v-13.099zM60.74 278.985a2.382 2.382 0 114.764 0v35.725a2.382 2.382 0 01-4.764 0v-35.725zm103.603 16.671a2.382 2.382 0 014.764 0v2.382a2.381 2.381 0 11-4.764 0v-2.382zm-52.396-13.099a2.381 2.381 0 114.763 0v28.58a2.381 2.381 0 11-4.763 0v-28.58zm103.603-3.572a2.381 2.381 0 114.763 0v35.725a2.382 2.382 0 01-4.763 0v-35.725z" fill="#C4C9D6"/><rect x="320.344" y="106.313" width="238.168" height="138.137" rx="16.996" fill="#C4C9D6"/><rect x="27.397" y="124.176" width="238.168" height="7.145" rx="3.573" fill="#01CB9D"/><rect x="27.397" y="146.802" width="189.344" height="7.145" rx="3.573" fill="#01CB9D"/><rect x="27.397" y="169.427" width="189.344" height="5.954" rx="2.977" fill="#01CB9D"/><rect x="27.397" y="190.863" width="189.344" height="5.954" rx="2.977" fill="#01CB9D"/><rect x="27.397" y="212.298" width="238.168" height="7.145" rx="3.573" fill="#01CB9D"/><rect x="27.397" y="234.924" width="238.168" height="7.145" rx="3.573" fill="#01CB9D"/><rect x="321.534" y="261.122" width="236.977" height="67.878" rx="16.996" fill="#C4C9D6"/><rect x="17.87" y="17" width="540.641" height="72.641" rx="16.996" fill="#C4C9D6"/><defs><filter id="filter0_b" x="-88.528" y="-88.528" width="750.056" height="524.056" filterUnits="userSpaceOnUse" color-interpolation-filters="sRGB"><feFlood flood-opacity="0" result="BackgroundImageFix"/><feGaussianBlur in="BackgroundImage" stdDeviation="44.264"/><feComposite in2="SourceAlpha" operator="in" result="effect1_backgroundBlur"/><feBlend in="SourceGraphic" in2="effect1_backgroundBlur" result="shape"/></filter></defs></svg>