<svg width="177" height="347" fill="none" xmlns="http://www.w3.org/2000/svg"><g filter="url(#filter0_b)"><rect width="177" height="347" rx="22.132" fill="#DADEE9"/></g><path d="M9 307.952c0-.42.341-.762.762-.762h1.524a.762.762 0 010 1.524H9.762a.762.762 0 01-.762-.762zm132.571-6.476a1.143 1.143 0 012.286 0v12.953a1.142 1.142 0 01-2.286 0v-12.953zm-66.285 2.667a1.524 1.524 0 113.047 0v7.619a1.524 1.524 0 01-3.047 0v-7.619zm-33.524-3.81a1.523 1.523 0 013.047 0v15.238a1.524 1.524 0 11-3.047 0v-15.238zm66.286 7.619c0-.42.341-.762.762-.762h1.523a.762.762 0 010 1.524h-1.523a.762.762 0 01-.762-.762zm-82.286-11.809a1.143 1.143 0 012.286 0v23.619a1.143 1.143 0 01-2.286 0v-23.619zm132.571 0a1.143 1.143 0 012.286 0v23.619a1.143 1.143 0 01-2.286 0v-23.619zm-66.285 3.809a1.142 1.142 0 012.285 0v16a1.142 1.142 0 11-2.285 0v-16zm-33.524 8c0-.42.34-.762.762-.762h1.523a.762.762 0 010 1.524h-1.523a.762.762 0 01-.762-.762zm66.286-6.095a1.524 1.524 0 013.047 0v12.191a1.523 1.523 0 01-3.047 0v-12.191zm-112 5.333a1.524 1.524 0 013.047 0v1.524a1.524 1.524 0 11-3.047 0v-1.524zm132.571-10.666a1.524 1.524 0 113.048 0v22.857a1.524 1.524 0 01-3.048 0v-22.857zm-66.286 2.286a1.524 1.524 0 113.048 0v18.285a1.524 1.524 0 11-3.048 0V298.81zm-32.762 8.38a1.524 1.524 0 013.048 0v1.524a1.524 1.524 0 11-3.048 0v-1.524zm66.286-.38a1.143 1.143 0 112.286 0v2.285a1.143 1.143 0 01-2.286 0v-2.285zm-83.048-2.667a1.524 1.524 0 113.048 0v7.619a1.524 1.524 0 01-3.048 0v-7.619zm132.572 0a1.524 1.524 0 113.047 0v7.619a1.524 1.524 0 01-3.047 0v-7.619zm-66.286-7.619a1.524 1.524 0 113.048 0v22.857a1.524 1.524 0 11-3.048 0v-22.857zm-32.762 9.524a1.142 1.142 0 112.286 0v3.809a1.143 1.143 0 01-2.286 0v-3.809zm66.286-9.905a1.143 1.143 0 012.286 0v23.619a1.143 1.143 0 01-2.286 0v-23.619zm-112 7.619a1.143 1.143 0 012.286 0v8.381a1.143 1.143 0 01-2.286 0v-8.381zm132.571 0a1.143 1.143 0 012.286 0v8.381a1.143 1.143 0 01-2.286 0v-8.381zm-66.285 0a1.143 1.143 0 012.285 0v8.381a1.143 1.143 0 01-2.285 0v-8.381zm-33.524 1.143a1.524 1.524 0 113.047 0V311a1.524 1.524 0 11-3.047 0v-6.095zm66.286 1.524a1.523 1.523 0 113.047 0v3.047a1.524 1.524 0 11-3.047 0v-3.047zm-82.286-6.477a1.142 1.142 0 012.286 0v16a1.142 1.142 0 11-2.286 0v-16zm131.809 7.238a1.524 1.524 0 013.048 0v1.524a1.524 1.524 0 11-3.048 0v-1.524zm-66.285-5.333a1.524 1.524 0 013.047 0v12.191a1.523 1.523 0 01-3.047 0v-12.191zm-32.762-5.333a1.524 1.524 0 113.047 0v22.857a1.524 1.524 0 11-3.047 0v-22.857zm66.285 1.524a1.524 1.524 0 013.048 0v19.809a1.524 1.524 0 11-3.048 0v-19.809zm-112 3.809a1.524 1.524 0 013.048 0v12.191a1.523 1.523 0 01-3.047 0v-12.191zm132.572 0a1.524 1.524 0 013.048 0v12.191a1.524 1.524 0 01-3.048 0v-12.191zm-66.286 0a1.524 1.524 0 013.048 0v12.191a1.523 1.523 0 01-3.048 0v-12.191zm-32.762 6.095c0-.42.341-.762.762-.762h.762a.762.762 0 010 1.524h-.762a.762.762 0 01-.762-.762zm66.286-4.19a1.143 1.143 0 012.286 0v8.381a1.143 1.143 0 01-2.286 0v-8.381zm-83.048-7.238a1.524 1.524 0 113.048 0v22.857a1.524 1.524 0 11-3.048 0v-22.857zm66.286 10.666a1.523 1.523 0 013.048 0v1.524a1.524 1.524 0 01-3.048 0v-1.524zm-33.524-8.38a1.524 1.524 0 113.048 0v18.285a1.524 1.524 0 11-3.048 0V298.81zM137 296.524a1.524 1.524 0 113.048 0v22.857a1.524 1.524 0 01-3.048 0v-22.857z" fill="#01CB9D"/><rect x="15" y="67" width="146" height="3.576" rx="1.788" fill="#C4C9D6"/><rect x="15" y="78.323" width="116.07" height="3.576" rx="1.788" fill="#C4C9D6"/><rect x="15" y="89.647" width="116.07" height="2.98" rx="1.49" fill="#C4C9D6"/><rect x="15" y="100.374" width="116.07" height="2.98" rx="1.49" fill="#C4C9D6"/><rect x="15" y="111.101" width="146" height="3.576" rx="1.788" fill="#C4C9D6"/><rect x="15" y="122.424" width="146" height="3.576" rx="1.788" fill="#C4C9D6"/><rect x="7" y="150" width="162" height="76" rx="14" fill="#C4C9D6"/><rect x="7" y="238" width="162" height="39" rx="14" fill="#C4C9D6"/><rect x="7" y="14" width="162" height="35" rx="14" fill="#C4C9D6"/><defs><filter id="filter0_b" x="-88.528" y="-88.528" width="354.056" height="524.056" filterUnits="userSpaceOnUse" color-interpolation-filters="sRGB"><feFlood flood-opacity="0" result="BackgroundImageFix"/><feGaussianBlur in="BackgroundImage" stdDeviation="44.264"/><feComposite in2="SourceAlpha" operator="in" result="effect1_backgroundBlur"/><feBlend in="SourceGraphic" in2="effect1_backgroundBlur" result="shape"/></filter></defs></svg>