<svg width="108" height="192" fill="none" xmlns="http://www.w3.org/2000/svg"><path d="M96.38 114.65a6.29 6.29 0 100-12.58 6.29 6.29 0 000 12.58zm-46.72 40.42l-11.12 11.12m57.28-15.13v-15.73m0-55.05V64.55M52.56 107.8h15.73M49.66 61.65L38.54 50.53m-23.95 57.83h15.72m-15.72 0h15.72m66.07-81.79V42.3" stroke="#B2DBF7" stroke-width="1.97" stroke-linecap="round" stroke-linejoin="round"/><path d="M55.22 151.08a1.57 1.57 0 100-3.14 1.57 1.57 0 000 3.14zm4.45-4.45a1.57 1.57 0 100-3.14 1.57 1.57 0 000 3.14zm4.45-4.45a1.57 1.57 0 100-3.14 1.57 1.57 0 000 3.14zm-8.9-72.29a1.57 1.57 0 100-3.14 1.57 1.57 0 000 3.14zm4.45 4.45a1.57 1.57 0 100-3.14 1.57 1.57 0 000 3.14zm4.45 4.45a1.57 1.57 0 100-3.14 1.57 1.57 0 000 3.14z" fill="#B2DBF7"/><path d="M104.16 116.15l-3.34-3.34m-8.89-8.9l-3.34-3.33m0 15.57l3.34-3.34m8.89-8.9l3.34-3.33" stroke="#B2DBF7" stroke-width="1.97" stroke-linecap="round" stroke-linejoin="round"/><path d="M90.64 3.82H17.36c-7.633 0-13.82 6.188-13.82 13.82v157.7c0 7.633 6.187 13.82 13.82 13.82h73.28c7.633 0 13.82-6.187 13.82-13.82V17.64c0-7.633-6.187-13.82-13.82-13.82z" fill="#E5F2FF"/><path d="M90.64 3.82H76.69a13.82 13.82 0 0113.82 13.82v157.7a13.819 13.819 0 01-13.82 13.82h13.95a13.819 13.819 0 0013.82-13.82V17.64a13.83 13.83 0 00-4.048-9.772A13.819 13.819 0 0090.64 3.82z" fill="#B2DBF7"/><path d="M10.85 175.34V17.64A13.82 13.82 0 0124.67 3.82h-7.31A13.82 13.82 0 003.54 17.64v157.7a13.819 13.819 0 0013.82 13.82h7.31a13.82 13.82 0 01-13.82-13.82z" fill="#fff"/><path d="M23 3.82l2.15 3.37a12.121 12.121 0 0010.23 5.62h37.2a12.14 12.14 0 0010.24-5.62L85 3.82" fill="#0480FE"/><path d="M33.95 178.94h40.1" stroke="#fff" stroke-width="1.97" stroke-linecap="round" stroke-linejoin="round"/><path d="M84.43 18.43H23.57c-5.523 0-10 4.477-10 10v93.04c0 5.523 4.477 10 10 10h60.86c5.523 0 10-4.477 10-10V28.43c0-5.523-4.477-10-10-10z" fill="#01CC9B"/><path d="M53.69 96.38c15.845 0 28.69-12.845 28.69-28.69S69.535 39 53.69 39 25 51.845 25 67.69s12.845 28.69 28.69 28.69z" fill="#DFF3FA"/><path d="M82.69 119.27H25.32v1.32h57.37v-1.32z" fill="#fff"/><path d="M32.32 124.55a4.67 4.67 0 100-9.34 4.67 4.67 0 000 9.34z" fill="#DFF3FA"/><path d="M77.35 140.09h-46.7a3 3 0 00-3 3v1.97a3 3 0 003 3h46.7a3 3 0 003-3v-1.97a3 3 0 00-3-3z" stroke="#B2DBF7" stroke-width=".99" stroke-linecap="round" stroke-linejoin="round"/><path d="M21.99 145.36a2.67 2.67 0 100-5.34 2.67 2.67 0 000 5.34zm46.61 4.61h-5.43c-.74 0-1.34.598-1.34 1.335s.6 1.335 1.34 1.335h5.43c.74 0 1.34-.598 1.34-1.335s-.6-1.335-1.34-1.335zm10.41 0h-5.43c-.74 0-1.34.598-1.34 1.335s.6 1.335 1.34 1.335h5.43c.74 0 1.34-.598 1.34-1.335s-.6-1.335-1.34-1.335z" fill="#B2DBF7"/><path d="M30.65 166.06h46.7a3 3 0 003-3v-1.97a3 3 0 00-3-3h-46.7a3 3 0 00-3 3v1.97a3 3 0 003 3z" stroke="#B2DBF7" stroke-width=".99" stroke-linecap="round" stroke-linejoin="round"/><path d="M86.01 163.36a2.67 2.67 0 100-5.34 2.67 2.67 0 000 5.34zm-41.18 4.61H39.4c-.74 0-1.34.598-1.34 1.335s.6 1.335 1.34 1.335h5.43c.74 0 1.34-.598 1.34-1.335s-.6-1.335-1.34-1.335zm-10.41 0h-5.43c-.74 0-1.34.598-1.34 1.335s.6 1.335 1.34 1.335h5.43c.74 0 1.34-.598 1.34-1.335s-.6-1.335-1.34-1.335z" fill="#B2DBF7"/><path d="M90.64 3.82H17.36c-7.633 0-13.82 6.188-13.82 13.82v157.7c0 7.633 6.187 13.82 13.82 13.82h73.28c7.633 0 13.82-6.187 13.82-13.82V17.64c0-7.633-6.187-13.82-13.82-13.82z" stroke="#0480FE" stroke-width="3.94" stroke-linecap="round" stroke-linejoin="round"/><path d="M51.08 83.255V59.614l9.801 9.103-12.441 10.44.78 2.422L50 84l.688-.193 9.51-7.724 6.06-5.628c.237-.248.445-.524.564-.8.119-.303.178-.607.178-.91 0-.304-.06-.607-.178-.91a2.234 2.234 0 00-.565-.8l-.03-.028-15.296-14.235c-.268-.248-.594-.469-.95-.579a3.08 3.08 0 00-1.1-.193 2.93 2.93 0 00-1.07.193c-.237.083-.474.22-.682.359-.327.248-.624.551-.802.91a1.54 1.54 0 00-.238.607c-.06.193-.089.414-.089.607V80a4 4 0 004 4c1-.5 1.08-.331 1.08-.745z" fill="url(#paint0_linear)"/><defs><linearGradient id="paint0_linear" x1="59.695" y1="55.517" x2="51.905" y2="90.252" gradientUnits="userSpaceOnUse"><stop stop-color="#0480FE"/><stop offset="1" stop-color="#00E27E"/></linearGradient></defs></svg>