<svg width="114" height="193" fill="none" xmlns="http://www.w3.org/2000/svg"><path d="M12.59 20.6l6.93 6.93" stroke="#B2DBF7" stroke-width="1.96" stroke-linecap="round" stroke-linejoin="round"/><path d="M9.12 18.11a.98.98 0 100-1.96.98.98 0 000 1.96zm-2.77-2.77a.98.98 0 100-1.96.98.98 0 000 1.96z" fill="#B2DBF7"/><path d="M93.45 4.14h-72.9c-7.594 0-13.75 6.156-13.75 13.75v156.9c0 7.594 6.156 13.75 13.75 13.75h72.9c7.594 0 13.75-6.156 13.75-13.75V17.89c0-7.594-6.156-13.75-13.75-13.75z" fill="#E5F2FF"/><path d="M93.45 4.14H79.57a13.76 13.76 0 0113.75 13.75v156.9a13.76 13.76 0 01-13.75 13.75h13.88a13.753 13.753 0 0013.75-13.75V17.89A13.752 13.752 0 0093.45 4.14z" fill="#B2DBF7"/><path d="M14.07 174.79V17.89A13.76 13.76 0 0127.82 4.14h-7.27A13.75 13.75 0 006.8 17.89v156.9a13.75 13.75 0 0013.75 13.75h7.27a13.762 13.762 0 01-13.75-13.75z" fill="#fff"/><path d="M33.06 40.94v-7.26l-6.29-3.63-6.28 3.63v7.26l6.28 3.63 6.29-3.63zm18.31-8.21H37.74m13.63 4.58H37.74m8.21 4.59h-8.21m37.23-.96v-7.26l-6.29-3.63-6.29 3.63v7.26l6.29 3.63 6.29-3.63zm18.3-8.21H79.65m13.62 4.58H79.65m8.21 4.59h-8.21" stroke="#B2DBF7" stroke-width=".98" stroke-linecap="round" stroke-linejoin="round"/><path d="M48.2 53.8H24.02a5 5 0 00-5 5v35a5 5 0 005 5H48.2a5 5 0 005-5v-35a5 5 0 00-5-5z" fill="#0480FE"/><path d="M48.2 53.8H24.02a5 5 0 00-5 5v35a5 5 0 005 5H48.2a5 5 0 005-5v-35a5 5 0 00-5-5z" fill="#01CC9B"/><path d="M89.98 53.8H65.8a5 5 0 00-5 5v35a5 5 0 005 5h24.18a5 5 0 005-5v-35a5 5 0 00-5-5z" fill="#0480FE"/><path d="M89.98 53.8H65.8a5 5 0 00-5 5v35a5 5 0 005 5h24.18a5 5 0 005-5v-35a5 5 0 00-5-5z" fill="#01CC9B"/><path d="M50.2 104.38H22.02a3 3 0 00-3 3v.68a3 3 0 003 3H50.2a3 3 0 003-3v-.68a3 3 0 00-3-3zm41.78 0H63.8a3 3 0 00-3 3v.68a3 3 0 003 3h28.18a3 3 0 003-3v-.68a3 3 0 00-3-3zM50.2 114.79H22.02a3 3 0 00-3 3v.68a3 3 0 003 3H50.2a3 3 0 003-3v-.68a3 3 0 00-3-3zm41.78 0H63.8a3 3 0 00-3 3v.68a3 3 0 003 3h28.18a3 3 0 003-3v-.68a3 3 0 00-3-3z" fill="#fff"/><path d="M19.6 130.11h75.38m-75.38 6.9h75.38m-75.38 6.9h75.38m-75.38 6.9h75.38m-75.38 6.9h75.38m-75.38 6.9h56.89" stroke="#B2DBF7" stroke-width=".98" stroke-linecap="round" stroke-linejoin="round"/><path d="M26.18 4.14l2.13 3.35a12.09 12.09 0 0010.19 5.59h37a12.09 12.09 0 0010.19-5.59l2.13-3.35" fill="#0480FE"/><path d="M37.05 178.37h39.9" stroke="#fff" stroke-width="1.96" stroke-linecap="round" stroke-linejoin="round"/><path d="M93.45 4.14h-72.9c-7.594 0-13.75 6.156-13.75 13.75v156.9c0 7.594 6.156 13.75 13.75 13.75h72.9c7.594 0 13.75-6.156 13.75-13.75V17.89c0-7.594-6.156-13.75-13.75-13.75z" stroke="#0480FE" stroke-width="3.92" stroke-linecap="round" stroke-linejoin="round"/></svg>