<svg width="54" height="53" fill="none" xmlns="http://www.w3.org/2000/svg"><path d="M14.12 27.343a5.032 5.032 0 003.193 1.096c1.514-.055 2.774-.6 3.784-1.63.486-.73.799-1.48.938-2.247.083-.767.125-1.414.125-1.939 0-2.266-.58-4.552-1.74-6.856-.543-1.105-1.259-2.004-2.146-2.698-.907-.655-1.948-1.002-3.126-1.04-1.557.038-2.853.667-3.885 1.884-.871 1.274-1.288 2.698-1.25 4.27 0 2.08.608 4.244 1.825 6.492a8.872 8.872 0 002.282 2.668zm3.491 8.723a12.206 12.206 0 01-1.108-1.748c-.378-.6-.567-1.325-.567-2.17 0-.508.072-.932.216-1.27.116-.33.233-.658.351-.986-.613.073-1.23.11-1.847.112-2.74-.033-4.895-.809-6.469-2.325v10.249a17.719 17.719 0 014.368-1.357c2.03-.3 3.715-.467 5.056-.505zm1.569 1.624c-.43-.04-.86-.06-1.29-.056-.294-.037-1.044 0-2.252.113-1.236.178-2.457.45-3.652.812-.293.113-.705.28-1.235.505a7.532 7.532 0 00-1.62 1.038 5.744 5.744 0 00-.944 1.074v1.563a2.66 2.66 0 002.657 2.657h14.483c0-.036.003-.07.003-.105 0-1.459-.477-2.73-1.428-3.815-1.007-1.028-2.58-2.29-4.722-3.785z" fill="#0C1A38"/><path d="M43.69 7.604H10.844a2.659 2.659 0 00-2.656 2.657v3.564c.167-.179.34-.356.522-.53 1.633-1.346 3.332-2.224 5.094-2.636 1.744-.355 3.379-.532 4.904-.532h11.497l-3.55 2.072h-3.546c.361.224.768.552 1.219.982.433.448.857 1 1.272 1.654.397.617.749 1.345 1.056 2.187.252.84.379 1.823.379 2.944-.034 2.057-.488 3.702-1.362 4.935-.415.582-.87 1.135-1.361 1.655-.555.526-1.12 1.04-1.696 1.542-.354.37-.673.774-.95 1.206a2.677 2.677 0 00-.514 1.626c0 .598.176 1.093.527 1.485.27.344.561.672.87.983l1.95 1.598a19.588 19.588 0 013.188 3.28c.861 1.216 1.31 2.805 1.344 4.767a8.81 8.81 0 01-.313 2.353H43.69a2.66 2.66 0 002.657-2.657V10.26a2.659 2.659 0 00-2.657-2.657zm2.09 11.722h-6.032v6.033h-2.922v-6.033h-6.032v-2.922h6.032V10.37h2.922v6.033h6.033v2.922z" fill="#0C1A38"/></svg>