<svg width="54" height="53" fill="none" xmlns="http://www.w3.org/2000/svg"><path d="M30.795 32.578c-.742.747-.114 2.11-.114 2.11l5.588 9.332s.918 1.23 1.712 1.23c.798 0 1.588-.656 1.588-.656l4.417-6.315s.445-.797.456-1.494c.016-.992-1.48-1.266-1.48-1.266L32.5 32.159s-1.024-.271-1.706.42zm-.529-4.703c.536.906 2.011.642 2.011.642l10.437-3.05s1.422-.578 1.625-1.348c.199-.773-.235-1.703-.235-1.703l-4.987-5.875s-.432-.744-1.33-.818c-.988-.083-1.597 1.112-1.597 1.112l-5.896 9.28s-.521.925-.028 1.76zm-4.932-3.619c1.23-.303 1.425-2.088 1.425-2.088L26.675 7.31s-.185-1.832-1.009-2.33c-1.292-.783-1.675-.375-2.044-.32l-8.665 3.22s-.849.28-1.29.988c-.631 1.002.64 2.471.64 2.471l9.007 12.278s.888.92 2.02.64zm-2.139 6.014c.031-1.147-1.376-1.835-1.376-1.835l-9.312-4.706s-1.381-.569-2.051-.172c-.514.303-.969.853-1.013 1.338l-.607 7.467s-.09 1.294.245 1.882c.475.834 2.037.254 2.037.254l10.873-2.403c.422-.284 1.163-.311 1.204-1.826zm2.703 4.028c-.933-.479-2.05.515-2.05.515l-7.28 8.014s-.909 1.226-.678 1.978c.218.706.578 1.057 1.088 1.303l7.31 2.308s.888.184 1.56-.01c.951-.277.776-1.767.776-1.767l.165-10.854s-.037-1.045-.891-1.487z" fill="#0C1A38"/></svg>