<svg width="54" height="53" fill="none" xmlns="http://www.w3.org/2000/svg"><g clip-path="url(#clip0)" fill-rule="evenodd" clip-rule="evenodd" fill="#0C1A38"><path d="M47.818 41.238l-5.414-.662.602-4.75 5.414.66-.602 4.752zm5.416-28.816l-9.265-1.142.06 21.477 4.03.54 5.175-20.875zm-18.65 3.731c-3.73-2.828-8.542-4.209-14.379-4.209-5.895 0-10.707 1.38-14.376 4.209C2.099 18.918.233 22.47.233 26.86c0 4.452 1.865 8.063 5.596 10.831 3.043 2.295 6.874 3.638 11.456 4.029h5.82c4.548-.39 8.385-1.734 11.48-4.029 3.669-2.768 5.533-6.379 5.533-10.83 0-4.391-1.864-7.943-5.534-10.708zm-2.767 7.038l-2.828.602c-.42.12-1.564.963-3.549 2.587-2.106 1.685-3.189 2.767-3.369 3.309l-.12 1.505-.06.902.24 2.286 3.731.057-.06 1.144h-6.077l-5.415.06.18-1.082 1.746-.058c.902-.063 1.444-.182 1.624-.364.12-.12.18-.842.18-2.105v-.782l-.06-1.564c-.12-.36-1.083-1.684-2.947-3.97-1.925-2.347-3.188-3.73-3.79-4.213l-3.49-.479v-1.024c.181-.119 2.106-.119 5.655-.06 2.467-.058 4.512-.058 6.137.06l-.12.844-3.671.36c1.143 1.685 2.888 4.03 5.234 6.98 3.068-2.349 4.693-3.853 4.752-4.515l-3.127-.48-.24-1.082h5.233l4.933.06-.722 1.022z"/></g><defs><clipPath id="clip0"><path fill="#fff" transform="translate(.233)" d="M0 0h53v53H0z"/></clipPath></defs></svg>