<svg width="865" height="1452" fill="none" xmlns="http://www.w3.org/2000/svg"><path d="M864.617 121.839L663.926 345.844 276.638 758.805 508.78 1009.3c10.552 11.27 18.757 25.05 24.615 38.82 5.859 13.78 8.198 28.8 8.191 43.82-.007 15.03-2.36 30.05-8.231 43.82-5.872 13.77-14.089 27.53-24.652 38.8l-252.324 269.05c-4.695 5-10.561 7.5-17.599 7.5l-213.49-.1c-22.287-.01-34.004-28.81-17.574-46.33l295.746-311.59L64.285 837.578c-9.38-11.271-17.584-23.795-22.27-36.316-4.686-13.774-7.026-27.546-7.02-41.317.006-13.772 2.36-27.542 7.058-41.311 4.698-13.77 12.915-26.285 22.304-36.296l1.173-1.252L669.936 35.365c10.562-11.263 23.47-21.272 37.548-26.273 14.079-6.254 29.33-8.75 43.406-8.744 14.076.007 28.151 2.517 42.225 8.783 9.382 3.76 18.763 10.024 26.972 16.288 12.898 11.274 24.622 25.05 31.652 41.329 4.688 8.765 8.203 17.53 9.371 27.547 2.342 8.765 3.511 18.781 3.507 27.544z" fill="url(#paint0_linear)"/><defs><linearGradient id="paint0_linear" x1="432.673" y1=".2" x2="432" y2="1451.2" gradientUnits="userSpaceOnUse"><stop offset=".086" stop-color="#ABB6D4" stop-opacity="0"/><stop offset=".925" stop-color="#E5F2FF"/></linearGradient></defs></svg>