<svg width="940" height="1706" fill="none" xmlns="http://www.w3.org/2000/svg"><path d="M261.64 913.545l414.439 431.145 214.726 233.84c-.025 9.12-1.313 19.54-3.858 28.65-1.288 10.42-5.092 19.53-10.155 28.64-7.604 16.92-20.238 31.22-34.125 42.91-8.834 6.49-18.928 12.98-29.015 16.86-15.132 6.47-30.253 9.03-45.367 8.99-15.113-.04-31.48-2.69-46.575-9.25-15.1-5.25-28.925-15.71-40.228-27.47L34.709 993.704l-1.256-1.307c-10.047-10.452-18.827-23.506-23.826-37.853-4.998-14.348-7.477-28.688-7.438-43.021.04-14.333 2.599-28.659 7.676-42.979 5.074-13.016 13.927-26.022 24.035-37.721l257.671-265.104L824.356 2.269l114.182 213.75-426.799 437.612L261.64 913.545z" fill="url(#paint0_linear)"/><defs><linearGradient id="paint0_linear" x1="325.569" y1="1516.25" x2="816.118" y2="-293.1" gradientUnits="userSpaceOnUse"><stop stop-color="#00E27E"/><stop offset="1" stop-color="#0480FE"/></linearGradient></defs></svg>