<svg width="28" height="28" fill="none" xmlns="http://www.w3.org/2000/svg"><g clip-path="url(#clip0)"><path d="M5.49.008C2.474.008.006 2.476.006 5.492v17.02c0 3.016 2.468 5.484 5.484 5.484h17.02c3.016 0 5.483-2.468 5.483-5.484V5.492c0-3.016-2.467-5.484-5.483-5.484H5.49zm1.38 4.618c1.446 0 2.337.95 2.364 2.198 0 1.22-.918 2.196-2.392 2.196h-.027c-1.42 0-2.336-.976-2.336-2.196 0-1.248.945-2.198 2.39-2.198zm12.462 5.833c2.781 0 4.866 1.818 4.866 5.724v7.293h-4.227v-6.804c0-1.71-.611-2.876-2.141-2.876-1.168 0-1.864.786-2.17 1.546-.111.271-.138.65-.138 1.031v7.103h-4.227s.055-11.525 0-12.719h4.227v1.801c.562-.866 1.567-2.099 3.81-2.099zm-14.604.3h4.227v12.717H4.728V10.758z" fill="#0A66C2"/></g><defs><clipPath id="clip0"><path fill="#fff" d="M0 0h28v28H0z"/></clipPath></defs></svg>