<svg width="69" height="26" fill="none" xmlns="http://www.w3.org/2000/svg"><g clip-path="url(#clip0)"><path d="M18.001 19.522v-3.048c0-1.703.636-3.16 1.93-4.393 1.271-1.233 2.828-1.86 4.626-1.86 1.71 0 3.2.56 4.429 1.68 1.228 1.121 1.841 2.534 1.841 4.215 0 .65-.065 1.187-.219 1.59-.153.404-.373.696-.701.853a3.19 3.19 0 01-.877.313 6.849 6.849 0 01-1.075.068h-6.643v.74c0 1.075.372 1.95 1.14 2.577.745.627 1.732.964 2.96.964.855 0 1.666-.202 2.434-.605.767-.404 1.227-.606 1.403-.606.35 0 .658.18.92.516.242.336.373.672.373 1.009 0 .537-.504 1.075-1.512 1.613-1.009.538-2.237.807-3.706.807-2.149 0-3.88-.583-5.262-1.77-1.381-1.188-2.061-2.735-2.061-4.663zm3.31-2.734h5.22c.46 0 .767-.067.92-.18.153-.134.241-.38.241-.761a2.85 2.85 0 00-.92-2.152 3.163 3.163 0 00-2.26-.897c-.876 0-1.643.27-2.257.83-.636.56-.943 1.277-.943 2.129v1.03zm12.455 7.755v-22.1c0-.314.153-.583.46-.784.307-.202.702-.314 1.184-.314.46 0 .855.112 1.184.314.329.201.482.47.482.784v22.1c0 .27-.175.538-.504.762-.329.247-.724.359-1.162.359-.46 0-.855-.112-1.162-.359-.329-.224-.482-.47-.482-.762zm6.753-19.702c0-.493.197-.919.57-1.255a1.98 1.98 0 011.36-.515c.525 0 .964.179 1.358.515.373.336.57.762.57 1.255 0 .471-.197.875-.57 1.233a1.9 1.9 0 01-1.359.538c-.526 0-.965-.18-1.36-.538-.372-.358-.57-.762-.57-1.233zm.285 19.702V11.521c0-.314.153-.583.46-.785.307-.202.702-.314 1.184-.314.483 0 .877.112 1.206.314.307.202.482.47.482.785v13.022c0 .27-.153.538-.482.762-.329.247-.724.359-1.184.359-.46 0-.855-.112-1.162-.359-.329-.224-.504-.47-.504-.762zm6.27-5.021v-2.891c0-1.905.549-3.452 1.645-4.64 1.096-1.188 2.718-1.77 4.867-1.77 1.36 0 2.5.246 3.42.717.922.493 1.382 1.031 1.382 1.614 0 .358-.132.74-.395 1.098-.263.359-.57.538-.92.538-.11 0-.483-.157-1.119-.493a4.728 4.728 0 00-2.127-.493c-2.302 0-3.464 1.12-3.464 3.384v2.87c0 2.263 1.162 3.384 3.486 3.384.79 0 1.513-.18 2.15-.516.635-.336 1.03-.515 1.14-.515.416 0 .767.179 1.03.515s.394.717.394 1.098c0 .606-.482 1.166-1.447 1.681-.965.516-2.148.762-3.53.762-2.192 0-3.815-.582-4.911-1.748-1.052-1.098-1.6-2.645-1.6-4.595zm13.879 1.144V4.55c0-.291.176-.56.505-.762.328-.224.723-.314 1.14-.314.416 0 .811.112 1.14.314.35.224.526.47.526.762v5.895h3.837c.263 0 .483.134.658.38.175.247.241.539.241.875 0 .336-.088.628-.241.874-.175.247-.395.381-.658.381h-3.859v7.71c0 .763.154 1.323.483 1.637.329.314.899.493 1.71.493h1.096c.439 0 .79.134 1.03.426.242.269.373.627.373 1.03 0 .404-.131.763-.372 1.032-.242.269-.592.426-1.03.426h-1.097c-3.662-.023-5.482-1.704-5.482-5.043z" fill="#fff"/><path d="M3.75 25.395V6.186l7.235 7.397-4.342 4.482c-.197.202-.35.449-.46.695-.11.247-.153.516-.153.785s.043.538.153.784c.11.247.263.493.46.695l4.715 4.82a.441.441 0 00.328.134h3.99c.417 0 .637-.516.33-.83l-5.526-5.58 4.473-4.573c.176-.202.33-.426.417-.65.088-.247.131-.493.131-.74 0-.246-.043-.493-.131-.74a1.825 1.825 0 00-.417-.65l-.022-.022L3.64.628a1.859 1.859 0 00-.702-.471A2.088 2.088 0 002.127 0c-.263 0-.526.045-.79.157a2.28 2.28 0 00-.504.291 2.14 2.14 0 00-.592.74 1.327 1.327 0 00-.175.493A1.906 1.906 0 000 2.174v23.22c0 .337.263.606.592.606h2.565a.596.596 0 00.592-.605z" fill="url(#paint0_linear)"/></g><defs><linearGradient id="paint0_linear" x1="10.532" y1="2.857" x2="3.882" y2="30.923" gradientUnits="userSpaceOnUse"><stop stop-color="#0480FE"/><stop offset="1" stop-color="#00E27E"/></linearGradient><clipPath id="clip0"><path fill="#fff" d="M0 0h69v26H0z"/></clipPath></defs></svg>