<svg width="584" height="578" fill="none" xmlns="http://www.w3.org/2000/svg"><path d="M155.87 25.204c-10.7 6.73-19.57 16.77-26.32 29.732-7.52 14.423-10.59 29.606-10.58 51.907 0 18.114 1.35 25.36 8.76 47.798 6.31 19.098 7.14 20.987 12.71 29.567 13.04 20.373 27.29 33.297 46.61 42.178 16.58 7.587 31.61 6.973 47.49-1.889 24.49-13.615 39.82-47.671 38.35-85.175-.66-15.338-2.26-24.97-7.12-41.243-6.93-23.198-16.23-40.231-29.59-53.953-15.92-16.39-37.15-26.927-54.2-26.694-8.16.098-19.08 3.312-26.11 7.772zm214.27-4.236c-28.66 12.767-51.2 44.389-59.59 83.85-7.92 36.754-3.29 70.489 13.14 95.722 10.86 16.653 28.19 28.096 46.23 30.531 6.79.837 7.7.759 18.56-2.649 13.77-4.412 21.41-8.96 33.29-20.043 20.12-18.893 33.64-46.356 37.86-77.452 1.79-13.342 2.02-23.441.76-38.39-.75-9.592-1.66-13.293-5.71-25.535-4.29-12.972-5.31-15.114-10.07-21.902-7.85-11.044-16.56-18.952-26.28-23.889-15.88-8.015-30.62-8.103-48.19-.243zM27.06 206.042c-11.34 7.333-18.75 17.637-22.6 31.427-7.26 25.398-4.56 56.465 6.93 82.331 15.72 35.176 42.75 59.757 74.98 67.966 12.43 3.263 25.67 1.364 36.87-5.112 10.4-6.019 20.63-18.64 24.68-30.551 13.86-40.045.41-91.894-32.54-125.152-20.05-20.315-41.73-30.911-60.84-29.937-7.94.448-20.92 4.714-27.48 9.028zm468.46-12.592c-6.68 3.321-18.24 11.55-23.77 16.76-14.86 14.17-28.57 36.881-34.39 57.118-4.49 15.319-7.27 35.838-6.54 46.96.94 13.011 7 31.368 13.51 40.883 15.51 22.457 36.97 29.849 63.14 21.649 14.09-4.421 24.69-10.81 36.67-22.233 18.28-17.501 31.64-42.86 37.32-70.528 2.13-10.08 2.94-29.567 1.74-38.906-1.44-10.392-7-25.944-12.29-34.008-8.96-13.449-23.31-23.48-36.91-25.564-10.39-1.549-26.24 1.675-38.48 7.869z" fill="#000"/><path d="M161.5 19.477C131.61 32.021 52.15 93.55 32 121.247c-25.01 34.329-22.63 126-33.5 160.202-4.74 14.89 20.5 156.793 59 185.035 32 30.28 42.66 33.989 48 42.851 9.1 15.153 42.5 42.363 42.5 42.363 82.5 23.86 78 18.991 113 23.86 35 4.87 54 0 54 0l28.5-4.869c28.861-4.931 23.404-2.665 66.202-13.019s43.798-10.841 43.798-10.841c15-5.843 18.691-9.25 26.711-13.915 14.52-8.531 37.969-38.207 40.289-53.769 35.539-49.757 49.11-60.263 43-80.345-7.09-23.665 8.68-63.747 20.5-148.028 11.82-84.281-138.008-208.905-174.298-231.295C380.962 1.782 311.5 0 271.5 0c-47 0-56.5 12.173-110 19.477z" fill="#000"/></svg>