<svg width="41" height="41" fill="none" xmlns="http://www.w3.org/2000/svg"><path d="M20.623 27.033a4.962 4.962 0 01-4.963-4.963 4.977 4.977 0 012.482-4.317l16.06-9.296-9.146 15.846a4.972 4.972 0 01-4.433 2.73zm0-21.504c2.994 0 5.789.828 8.22 2.184L25.37 9.714a13.227 13.227 0 00-4.747-.876A13.233 13.233 0 007.39 22.07a13.12 13.12 0 003.87 9.346h.017a1.647 1.647 0 010 2.332 1.683 1.683 0 01-2.349.017A16.49 16.49 0 014.082 22.07a16.54 16.54 0 0116.54-16.54zm16.54 16.541c0 4.566-1.852 8.7-4.846 11.695a1.663 1.663 0 01-2.69-.552 1.647 1.647 0 01.358-1.797 13.152 13.152 0 003.87-9.346c0-1.654-.314-3.308-.893-4.797l2.002-3.473c1.373 2.481 2.2 5.26 2.2 8.27z" fill="#0D1B39"/></svg>