<svg width="41" height="42" fill="none" xmlns="http://www.w3.org/2000/svg"><g clip-path="url(#clip0)"><path d="M20.686 9.928a3.901 3.901 0 00-1.054.135c-.47.114-1.188.562-1.613.987-.693.715-.829 1.03-1.12 2.485-.135.716.694 2.42 1.433 2.934.762.536 1.836.849 3.494 1.028 2.418.27 3.113 1.076 3.113 3.717 0 2.33-.651 2.956-3.316 3.225-2.888.29-4.365 1.41-4.678 3.581-.18 1.322.694 2.978 1.903 3.538 2.753 1.3 5.33-.335 5.866-3.715.357-2.173 1.052-2.778 3.38-2.956 2.687-.225 4.076-1.142 4.59-3.023.47-1.726-.514-3.65-2.194-4.321-.447-.18-1.477-.403-2.284-.492-2.53-.271-3.18-.718-3.448-2.352-.38-2.262-.537-2.643-1.343-3.536a3.678 3.678 0 00-2.73-1.235zm-8.096 7.376a3.632 3.632 0 00-.84.082c-2.486.538-3.672 3.47-2.285 5.574 1.993 3.001 6.673 1.612 6.717-1.991.02-2.018-1.658-3.626-3.592-3.665zm-8.872 7.383a3.761 3.761 0 00-.722.088c-3.651.806-3.785 6.135-.18 7.076.897.245.985.245 1.88.022 2.015-.538 3.157-2.464 2.62-4.411-.47-1.726-1.935-2.815-3.598-2.775zm33.539.014c-.394.003-.807.098-1.326.274-2.352.807-3.157 3.54-1.658 5.644.942 1.343 3.316 1.79 4.77.873 2.396-1.479 2.306-5.172-.157-6.338-.643-.314-1.122-.458-1.629-.453z" fill="#0D1B39"/></g><defs><clipPath id="clip0"><path fill="#fff" transform="translate(.184 .68)" d="M0 0h40.604v40.604H0z"/></clipPath></defs></svg>