<svg width="37" height="38" fill="none" xmlns="http://www.w3.org/2000/svg"><path d="M12.698 31.26H8.142a3.038 3.038 0 01-3.038-3.037V9.996A3.038 3.038 0 018.142 6.96h4.556a3.038 3.038 0 013.038 3.037v18.227a3.038 3.038 0 01-3.038 3.038zM24.85 16.073h6.075a3.038 3.038 0 003.038-3.038V8.478a3.038 3.038 0 00-3.038-3.038H24.85a3.038 3.038 0 00-3.038 3.038v4.556a3.038 3.038 0 003.038 3.038zm7.594 15.189v-9.114a3.038 3.038 0 00-3.037-3.037H21.81a3.038 3.038 0 00-3.037 3.037v9.114a3.038 3.038 0 003.037 3.037h7.595a3.037 3.037 0 003.037-3.037z" fill="#0D1B39"/></svg>