<svg width="124" height="206" fill="none" xmlns="http://www.w3.org/2000/svg"><path d="M28.788 200.922V49.469l55.555 58.319-33.333 35.345c-1.515 1.591-2.694 3.534-3.535 5.478-.842 1.944-1.179 4.065-1.179 6.186 0 2.12.337 4.241 1.179 6.185.841 1.944 2.02 3.888 3.535 5.479l36.195 37.995c.674.707 1.516 1.061 2.526 1.061h30.639c3.199 0 4.883-4.065 2.526-6.539l-42.425-44.004 34.344-36.052c1.347-1.591 2.525-3.358 3.198-5.125.674-1.944 1.011-3.888 1.011-5.832s-.337-3.888-1.011-5.832c-.673-1.944-1.851-3.711-3.198-5.125l-.169-.177-86.7-91.19c-1.515-1.59-3.367-3.004-5.387-3.71C20.539 1.046 18.35.692 16.33.692c-2.02 0-4.04.354-6.06 1.237-1.347.53-2.694 1.414-3.873 2.298-1.852 1.59-3.535 3.534-4.545 5.832-.674 1.237-1.179 2.474-1.347 3.888A15.406 15.406 0 000 17.836v183.086c0 2.651 2.02 4.771 4.545 4.771h19.697c2.526 0 4.546-2.12 4.546-4.771z" fill="url(#paint0_linear)"/><defs><linearGradient id="paint0_linear" x1="80.865" y1="23.223" x2="27.177" y2="243.871" gradientUnits="userSpaceOnUse"><stop stop-color="#0480FE"/><stop offset="1" stop-color="#00E27E"/></linearGradient></defs></svg>