<svg width="8" height="7" fill="none" xmlns="http://www.w3.org/2000/svg"><path d="M3.314 6c-.035-.035-.185-.164-.309-.284C2.228 5.01.955 3.167.567 2.203.504 2.057.372 1.687.364 1.49c0-.19.043-.37.132-.543a1.13 1.13 0 01.548-.482c.159-.061.636-.156.644-.156C2.21.215 3.058.163 3.995.163c.893 0 1.706.052 2.236.13.008.008.601.102.804.206.37.19.601.56.601.956v.034c-.009.258-.24.8-.248.8C7 3.203 5.79 5.002 4.985 5.726c0 0-.207.203-.336.292a1.08 1.08 0 01-.645.206 1.14 1.14 0 01-.69-.223z" fill="#fff"/></svg>