<svg width="72" height="72" fill="none" xmlns="http://www.w3.org/2000/svg"><rect width="72" height="72" rx="36" fill="url(#paint0_linear)"/><g clip-path="url(#clip0)"><path d="M36.686 24.928a3.899 3.899 0 00-1.054.135c-.47.114-1.188.562-1.613.987-.693.715-.829 1.03-1.12 2.485-.135.716.694 2.42 1.433 2.934.762.536 1.836.849 3.494 1.028 2.417.27 3.113 1.076 3.113 3.717 0 2.33-.651 2.956-3.316 3.225-2.888.29-4.365 1.41-4.678 3.581-.18 1.322.694 2.978 1.903 3.538 2.753 1.3 5.33-.335 5.866-3.715.357-2.173 1.052-2.778 3.38-2.956 2.687-.225 4.076-1.142 4.59-3.023.47-1.726-.514-3.65-2.194-4.321-.447-.18-1.477-.403-2.284-.492-2.53-.271-3.18-.718-3.448-2.352-.38-2.262-.537-2.643-1.344-3.536a3.68 3.68 0 00-2.728-1.235zm-8.096 7.376a3.626 3.626 0 00-.84.082c-2.486.538-3.672 3.47-2.285 5.574 1.993 3.001 6.673 1.612 6.717-1.991.02-2.019-1.658-3.626-3.592-3.665zm-8.872 7.383a3.752 3.752 0 00-.722.089c-3.651.805-3.785 6.134-.18 7.075.897.245.985.245 1.88.022 2.015-.538 3.157-2.464 2.62-4.41-.47-1.727-1.935-2.816-3.598-2.776zm33.539.014c-.394.003-.807.098-1.326.274-2.352.807-3.157 3.54-1.658 5.644.942 1.343 3.316 1.79 4.77.873 2.396-1.479 2.306-5.172-.157-6.338-.643-.314-1.122-.458-1.629-.453z" fill="#fff"/></g><defs><linearGradient id="paint0_linear" x1="46.954" y1="7.913" x2="35.129" y2="88.257" gradientUnits="userSpaceOnUse"><stop stop-color="#0480FE"/><stop offset="1" stop-color="#00E27E"/></linearGradient><clipPath id="clip0"><path fill="#fff" transform="translate(16.184 15.68)" d="M0 0h40.604v40.604H0z"/></clipPath></defs></svg>