<svg width="72" height="72" fill="none" xmlns="http://www.w3.org/2000/svg"><rect width="72" height="72" rx="36" fill="url(#paint0_linear)"/><path d="M46.15 19h-20.3C23.726 19 22 20.747 22 22.896v26.208C22 51.254 23.726 53 25.85 53h20.3c2.124 0 3.85-1.747 3.85-3.896V22.896C50 20.746 48.274 19 46.15 19zm-11.9 18.417V30.44c3.36.517 5.95 3.434 5.95 6.976 0 3.905-3.14 7.083-7 7.083-1.551 0-2.972-.53-4.134-1.398l4.876-4.934a1.07 1.07 0 00.308-.751zm-2.1-6.976v6.537L27.582 41.6a7.069 7.069 0 01-1.382-4.183c0-3.542 2.59-6.459 5.95-6.976zm12.6 18.663h-17.5c-.58 0-1.05-.476-1.05-1.062 0-.587.47-1.063 1.05-1.063h17.5c.58 0 1.05.476 1.05 1.063 0 .586-.47 1.062-1.05 1.062zm0-4.604h-2.1c-.58 0-1.05-.476-1.05-1.063 0-.586.47-1.062 1.05-1.062h2.1c.58 0 1.05.476 1.05 1.063 0 .586-.47 1.062-1.05 1.062zm0-3.896h-2.1c-.58 0-1.05-.476-1.05-1.062 0-.587.47-1.063 1.05-1.063h2.1c.58 0 1.05.476 1.05 1.063 0 .586-.47 1.062-1.05 1.062zm0-4.25h-2.1c-.58 0-1.05-.476-1.05-1.062 0-.587.47-1.063 1.05-1.063h2.1c.58 0 1.05.476 1.05 1.063 0 .586-.47 1.062-1.05 1.062zm0-3.896h-2.1c-.58 0-1.05-.476-1.05-1.062 0-.587.47-1.063 1.05-1.063h2.1c.58 0 1.05.476 1.05 1.063 0 .586-.47 1.062-1.05 1.062z" fill="#fff"/><defs><linearGradient id="paint0_linear" x1="46.954" y1="7.913" x2="35.129" y2="88.257" gradientUnits="userSpaceOnUse"><stop stop-color="#0480FE"/><stop offset="1" stop-color="#00E27E"/></linearGradient></defs></svg>