<svg width="72" height="72" fill="none" xmlns="http://www.w3.org/2000/svg"><rect width="72" height="72" rx="36" fill="url(#paint0_linear)"/><path d="M36 38.227c-4.297 0-7.793 3.496-7.793 7.793 0 4.296 3.496 7.792 7.793 7.792 4.297 0 7.793-3.496 7.793-7.792 0-4.297-3.496-7.793-7.793-7.793zm4.453 8.906H36a1.113 1.113 0 01-1.113-1.114v-4.453a1.113 1.113 0 112.226 0v3.34h3.34a1.113 1.113 0 110 2.227zM23.754 22.64a4.457 4.457 0 00-4.453 4.454 4.457 4.457 0 004.453 4.453 4.457 4.457 0 004.453-4.453 4.457 4.457 0 00-4.453-4.453zm24.492 0a4.457 4.457 0 00-4.453 4.454 4.457 4.457 0 004.453 4.453 4.458 4.458 0 004.453-4.453 4.457 4.457 0 00-4.453-4.453zM36 18.188a5.573 5.573 0 00-5.566 5.566A5.573 5.573 0 0036 29.32a5.573 5.573 0 005.566-5.566A5.573 5.573 0 0036 18.188zm12.246 13.359c-.852 0-1.671.205-2.447.514a12.088 12.088 0 012.447 7.279v4.453a3.3 3.3 0 01-.205 1.113h5.846c.615 0 1.113-.498 1.113-1.113v-5.566c0-3.684-3.07-6.68-6.754-6.68zM23.754 39.34c0-2.68.893-5.209 2.45-7.278-.777-.31-1.597-.515-2.45-.515-3.683 0-6.754 2.996-6.754 6.68v5.566c0 .615.498 1.113 1.113 1.113h5.846a3.3 3.3 0 01-.205-1.113V39.34z" fill="#fff"/><path d="M36 29.32c-5.264 0-10.02 4.36-10.02 10.02v4.453c0 .206.072.389.17.555C26.95 39.62 31.046 36 36 36c4.953 0 9.049 3.62 9.85 8.348.098-.166.17-.349.17-.555V39.34c0-5.619-4.714-10.02-10.02-10.02zm0 5.786l-2.147-3.22c.686-.199 1.397-.34 2.147-.34.75 0 1.46.141 2.147.34L36 35.106z" fill="#fff"/><defs><linearGradient id="paint0_linear" x1="46.954" y1="7.913" x2="35.129" y2="88.257" gradientUnits="userSpaceOnUse"><stop stop-color="#0480FE"/><stop offset="1" stop-color="#00E27E"/></linearGradient></defs></svg>