<svg width="72" height="72" fill="none" xmlns="http://www.w3.org/2000/svg"><rect width="72" height="72" rx="36" fill="url(#paint0_linear)"/><path d="M29.698 48.26h-4.556a3.038 3.038 0 01-3.038-3.037V26.996a3.038 3.038 0 013.038-3.037h4.556a3.038 3.038 0 013.038 3.037v18.227a3.037 3.037 0 01-3.038 3.038zM41.85 33.073h6.076a3.038 3.038 0 003.037-3.038v-4.556a3.038 3.038 0 00-3.038-3.038H41.85a3.038 3.038 0 00-3.038 3.038v4.556a3.038 3.038 0 003.038 3.038zm7.594 15.189v-9.114a3.038 3.038 0 00-3.037-3.037H38.81a3.038 3.038 0 00-3.037 3.037v9.114a3.038 3.038 0 003.037 3.037h7.595a3.037 3.037 0 003.037-3.037z" fill="#fff"/><defs><linearGradient id="paint0_linear" x1="46.954" y1="7.913" x2="35.129" y2="88.257" gradientUnits="userSpaceOnUse"><stop stop-color="#0480FE"/><stop offset="1" stop-color="#00E27E"/></linearGradient></defs></svg>