<svg width="72" height="72" fill="none" xmlns="http://www.w3.org/2000/svg"><rect width="72" height="72" rx="36" fill="url(#paint0_linear)"/><path d="M36 38.5a2.5 2.5 0 100-5 2.5 2.5 0 000 5z" fill="#fff"/><path d="M52.483 33.2L51.167 29a3.767 3.767 0 00-4.8-2.517l-.567.184a2.9 2.9 0 01-2.65-.434l-.183-.133a2.933 2.933 0 01-1.15-2.383v-.467a3.95 3.95 0 00-1.134-2.8 3.766 3.766 0 00-2.666-1.117h-4.25a3.867 3.867 0 00-3.817 3.884v.4a3.233 3.233 0 01-1.217 2.516l-.216.167a3.218 3.218 0 01-2.967.483 3.566 3.566 0 00-2.8.2 3.635 3.635 0 00-1.867 2.217l-1.366 4.333a3.9 3.9 0 002.466 4.9h.267a3.05 3.05 0 011.867 2.034l.1.266a3.434 3.434 0 01-.384 3.1 3.95 3.95 0 00.817 5.5l3.45 2.617a3.75 3.75 0 002.25.717c.216.02.434.02.65 0A3.75 3.75 0 0033.45 51l.383-.55a3.001 3.001 0 012.384-1.283 2.917 2.917 0 012.5 1.3l.2.283a3.735 3.735 0 005.366.883l3.384-2.533a3.967 3.967 0 00.833-5.383l-.433-.634a3.332 3.332 0 01-.4-2.75 3.15 3.15 0 012.016-2.133l.334-.117a3.933 3.933 0 002.466-4.883zM36 41.833a5.833 5.833 0 110-11.666 5.833 5.833 0 010 11.666z" fill="#fff"/><defs><linearGradient id="paint0_linear" x1="46.954" y1="7.913" x2="35.129" y2="88.257" gradientUnits="userSpaceOnUse"><stop stop-color="#0480FE"/><stop offset="1" stop-color="#00E27E"/></linearGradient></defs></svg>