<svg width="72" height="72" fill="none" xmlns="http://www.w3.org/2000/svg"><rect width="72" height="72" rx="36" fill="url(#paint0_linear)"/><g clip-path="url(#clip0)" fill="#fff"><path d="M31 32.667A8.333 8.333 0 1031 16a8.333 8.333 0 000 16.667zm4.223 18A4.178 4.178 0 0135.562 46a4.177 4.177 0 01-.339-4.667L36.572 39a4.179 4.179 0 014.211-2.04c.055-.137.125-.265.194-.395A7.861 7.861 0 0038.083 36H23.917C19.552 36 16 39.552 16 43.917v5.833c0 .69.56 1.25 1.25 1.25h18.165l-.192-.333z"/><path d="M52.172 46.782c.033-.259.078-.515.078-.782 0-.268-.047-.523-.078-.782l1.501-1.136A.834.834 0 0053.892 43l-1.349-2.333a.834.834 0 00-1.045-.352l-1.728.728a6.19 6.19 0 00-1.365-.811l-.23-1.835a.834.834 0 00-.827-.73h-2.695a.833.833 0 00-.826.73l-.23 1.835a6.22 6.22 0 00-1.365.811l-1.729-.728a.832.832 0 00-1.045.352L38.11 43a.835.835 0 00.218 1.082l1.502 1.136c-.033.259-.078.515-.078.782 0 .268.046.523.078.782l-1.502 1.136A.834.834 0 0038.11 49l1.348 2.335a.834.834 0 001.045.352l1.729-.73c.421.321.87.605 1.365.811l.23 1.835a.83.83 0 00.825.73h2.695c.42 0 .775-.313.826-.73l.23-1.835a6.22 6.22 0 001.365-.811l1.729.728a.832.832 0 001.045-.352l1.348-2.335a.835.835 0 00-.218-1.081l-1.5-1.135zM46 49.333a3.332 3.332 0 110-6.666 3.332 3.332 0 110 6.666z"/></g><defs><linearGradient id="paint0_linear" x1="46.954" y1="7.913" x2="35.129" y2="88.257" gradientUnits="userSpaceOnUse"><stop stop-color="#0480FE"/><stop offset="1" stop-color="#00E27E"/></linearGradient><clipPath id="clip0"><path fill="#fff" transform="translate(16 16)" d="M0 0h40v40H0z"/></clipPath></defs></svg>