<svg width="72" height="72" fill="none" xmlns="http://www.w3.org/2000/svg"><rect width="72" height="72" rx="36" fill="url(#paint0_linear)"/><path d="M36 52.667c-9.205 0-16.667-7.462-16.667-16.667 0-9.205 7.462-16.667 16.667-16.667 9.205 0 16.667 7.462 16.667 16.667 0 9.205-7.462 16.667-16.667 16.667zm-5.833-13.334v3.334h4.166V46h3.334v-3.333h1.666a4.167 4.167 0 000-8.334h-6.666a.833.833 0 110-1.666h9.166v-3.334h-4.166V26h-3.334v3.333h-1.666a4.167 4.167 0 100 8.334h6.666a.833.833 0 010 1.666h-9.166z" fill="#fff"/><defs><linearGradient id="paint0_linear" x1="46.954" y1="7.913" x2="35.129" y2="88.257" gradientUnits="userSpaceOnUse"><stop stop-color="#0480FE"/><stop offset="1" stop-color="#00E27E"/></linearGradient></defs></svg>