<svg width="72" height="72" fill="none" xmlns="http://www.w3.org/2000/svg"><rect width="72" height="72" rx="36" fill="url(#paint0_linear)"/><path d="M22.3 37.072l8.146 5.765a.998.998 0 001.391-.238l2.306-3.258a.998.998 0 00-.238-1.391l-.45-.318c2.41-1.904 4.742-5.24 5.752-8.155l.463.328a.998.998 0 001.391-.238l2.306-3.259a.998.998 0 00-.238-1.39l-8.145-5.765a.998.998 0 00-1.391.238l-2.306 3.258a.998.998 0 00.238 1.39l.463.329c-2.454 1.956-4.8 5.281-5.778 8.136l-.45-.319a.998.998 0 00-1.391.238l-2.306 3.258a.998.998 0 00.238 1.391zm28.435 3.009l-10.683-7.56a22.996 22.996 0 01-3.448 4.894l10.672 7.553a2.992 2.992 0 004.173-.714 2.992 2.992 0 00-.714-4.173zm-9.779 6.963h-.998a1 1 0 01-.998-.998.998.998 0 00-.998-.998h-13.97a.998.998 0 00-.998.998 1 1 0 01-.998.998h-.998a.998.998 0 00-.998.998v3.991c0 .551.447.998.998.998h19.958a.998.998 0 00.998-.998v-3.992a.998.998 0 00-.998-.997z" fill="#fff"/><defs><linearGradient id="paint0_linear" x1="46.954" y1="7.913" x2="35.129" y2="88.257" gradientUnits="userSpaceOnUse"><stop stop-color="#0480FE"/><stop offset="1" stop-color="#00E27E"/></linearGradient></defs></svg>