<svg width="51" height="51" fill="none" xmlns="http://www.w3.org/2000/svg"><circle cx="25.5" cy="25.5" r="25" stroke="#030F29"/><path d="M31.575 28.2a4.045 4.045 0 014.05 4.05 4.045 4.045 0 01-4.05 4.05 4.045 4.045 0 01-4.05-4.05c0-.324.04-.621.121-.931l-5.913-3.105a3.99 3.99 0 01-2.983 1.336 4.045 4.045 0 01-4.05-4.05 4.045 4.045 0 014.05-4.05c1.188 0 2.241.527 2.983 1.337l5.913-3.105a3.6 3.6 0 01-.121-.932 4.045 4.045 0 014.05-4.05 4.045 4.045 0 014.05 4.05 4.045 4.045 0 01-4.05 4.05c-1.188 0-2.241-.527-2.984-1.337l-5.913 3.105c.164.61.164 1.253 0 1.863l5.913 3.105a3.99 3.99 0 012.984-1.336z" fill="#030F29"/></svg>