<svg width="573" height="347" viewBox="0 0 573 347" fill="none" xmlns="http://www.w3.org/2000/svg">
<g filter="url(#filter0_b)">
<rect width="573" height="347" rx="22.132" fill="#DADEE9"/>
</g>
<path d="M15.4885 296.847C15.4885 296.19 16.0217 295.656 16.6794 295.656H19.061C19.7187 295.656 20.2519 296.19 20.2519 296.847C20.2519 297.505 19.7187 298.038 19.061 298.038H16.6794C16.0217 298.038 15.4885 297.505 15.4885 296.847Z" fill="#C4C9D6"/>
<path d="M222.695 286.725C222.695 285.739 223.494 284.939 224.481 284.939C225.467 284.939 226.267 285.739 226.267 286.725V306.969C226.267 307.956 225.467 308.756 224.481 308.756C223.494 308.756 222.695 307.956 222.695 306.969V286.725Z" fill="#C4C9D6"/>
<path d="M119.092 290.893C119.092 289.578 120.158 288.511 121.473 288.511C122.789 288.511 123.855 289.578 123.855 290.893V302.802C123.855 304.117 122.789 305.183 121.473 305.183C120.158 305.183 119.092 304.117 119.092 302.802V290.893Z" fill="#C4C9D6"/>
<path d="M66.6946 284.939C66.6946 283.624 67.7609 282.557 69.0763 282.557C70.3917 282.557 71.458 283.624 71.458 284.939V308.756C71.458 310.071 70.3917 311.137 69.0763 311.137C67.7609 311.137 66.6946 310.071 66.6946 308.756V284.939Z" fill="#C4C9D6"/>
<path d="M170.298 296.847C170.298 296.19 170.831 295.656 171.489 295.656H173.87C174.528 295.656 175.061 296.19 175.061 296.847C175.061 297.505 174.528 298.038 173.87 298.038H171.489C170.831 298.038 170.298 297.505 170.298 296.847Z" fill="#C4C9D6"/>
<path d="M41.687 278.389C41.687 277.403 42.4867 276.603 43.4733 276.603C44.4598 276.603 45.2595 277.403 45.2595 278.389V315.305C45.2595 316.292 44.4598 317.092 43.4733 317.092C42.4867 317.092 41.687 316.292 41.687 315.305V278.389Z" fill="#C4C9D6"/>
<path d="M248.893 278.389C248.893 277.403 249.693 276.603 250.679 276.603C251.666 276.603 252.466 277.403 252.466 278.389V315.305C252.466 316.292 251.666 317.092 250.679 317.092C249.693 317.092 248.893 316.292 248.893 315.305V278.389Z" fill="#C4C9D6"/>
<path d="M145.29 284.343C145.29 283.357 146.09 282.557 147.076 282.557C148.063 282.557 148.863 283.357 148.863 284.343V309.351C148.863 310.338 148.063 311.137 147.076 311.137C146.09 311.137 145.29 310.338 145.29 309.351V284.343Z" fill="#C4C9D6"/>
<path d="M92.8931 296.847C92.8931 296.19 93.4263 295.656 94.084 295.656H96.4656C97.1233 295.656 97.6565 296.19 97.6565 296.847C97.6565 297.505 97.1233 298.038 96.4656 298.038H94.084C93.4263 298.038 92.8931 297.505 92.8931 296.847Z" fill="#C4C9D6"/>
<path d="M196.496 287.321C196.496 286.005 197.562 284.939 198.878 284.939C200.193 284.939 201.26 286.005 201.26 287.321V306.374C201.26 307.689 200.193 308.756 198.878 308.756C197.562 308.756 196.496 307.689 196.496 306.374V287.321Z" fill="#C4C9D6"/>
<path d="M21.4427 295.656C21.4427 294.341 22.509 293.275 23.8244 293.275C25.1398 293.275 26.2061 294.341 26.2061 295.656V298.038C26.2061 299.354 25.1398 300.42 23.8244 300.42C22.509 300.42 21.4427 299.354 21.4427 298.038V295.656Z" fill="#C4C9D6"/>
<path d="M228.649 278.985C228.649 277.669 229.715 276.603 231.031 276.603C232.346 276.603 233.412 277.669 233.412 278.985V314.71C233.412 316.025 232.346 317.092 231.031 317.092C229.715 317.092 228.649 316.025 228.649 314.71V278.985Z" fill="#C4C9D6"/>
<path d="M125.046 282.557C125.046 281.242 126.112 280.176 127.427 280.176C128.743 280.176 129.809 281.242 129.809 282.557V311.137C129.809 312.453 128.743 313.519 127.427 313.519C126.112 313.519 125.046 312.453 125.046 311.137V282.557Z" fill="#C4C9D6"/>
<path d="M73.8397 295.656C73.8397 294.341 74.906 293.275 76.2214 293.275C77.5367 293.275 78.603 294.341 78.603 295.656V298.038C78.603 299.354 77.5367 300.42 76.2214 300.42C74.906 300.42 73.8397 299.354 73.8397 298.038V295.656Z" fill="#C4C9D6"/>
<path d="M177.443 295.061C177.443 294.075 178.242 293.275 179.229 293.275C180.216 293.275 181.015 294.075 181.015 295.061V298.634C181.015 299.62 180.216 300.42 179.229 300.42C178.242 300.42 177.443 299.62 177.443 298.634V295.061Z" fill="#C4C9D6"/>
<path d="M47.6412 290.893C47.6412 289.578 48.7075 288.511 50.0229 288.511C51.3382 288.511 52.4046 289.578 52.4046 290.893V302.802C52.4046 304.117 51.3382 305.183 50.0229 305.183C48.7075 305.183 47.6412 304.117 47.6412 302.802V290.893Z" fill="#C4C9D6"/>
<path d="M254.847 290.893C254.847 289.578 255.914 288.511 257.229 288.511C258.544 288.511 259.611 289.578 259.611 290.893V302.802C259.611 304.117 258.544 305.183 257.229 305.183C255.914 305.183 254.847 304.117 254.847 302.802V290.893Z" fill="#C4C9D6"/>
<path d="M151.244 278.985C151.244 277.669 152.311 276.603 153.626 276.603C154.941 276.603 156.008 277.669 156.008 278.985V314.71C156.008 316.025 154.941 317.092 153.626 317.092C152.311 317.092 151.244 316.025 151.244 314.71V278.985Z" fill="#C4C9D6"/>
<path d="M100.038 293.87C100.038 292.884 100.838 292.084 101.824 292.084C102.811 292.084 103.611 292.884 103.611 293.87V299.824C103.611 300.811 102.811 301.611 101.824 301.611C100.838 301.611 100.038 300.811 100.038 299.824V293.87Z" fill="#C4C9D6"/>
<path d="M203.641 278.389C203.641 277.403 204.441 276.603 205.427 276.603C206.414 276.603 207.214 277.403 207.214 278.389V315.305C207.214 316.292 206.414 317.092 205.427 317.092C204.441 317.092 203.641 316.292 203.641 315.305V278.389Z" fill="#C4C9D6"/>
<path d="M28.5878 290.298C28.5878 289.311 29.3875 288.511 30.374 288.511C31.3605 288.511 32.1603 289.311 32.1603 290.298V303.397C32.1603 304.383 31.3605 305.183 30.374 305.183C29.3875 305.183 28.5878 304.383 28.5878 303.397V290.298Z" fill="#C4C9D6"/>
<path d="M235.794 290.298C235.794 289.311 236.594 288.511 237.58 288.511C238.567 288.511 239.366 289.311 239.366 290.298V303.397C239.366 304.383 238.567 305.183 237.58 305.183C236.594 305.183 235.794 304.383 235.794 303.397V290.298Z" fill="#C4C9D6"/>
<path d="M132.191 290.298C132.191 289.311 132.991 288.511 133.977 288.511C134.964 288.511 135.763 289.311 135.763 290.298V303.397C135.763 304.383 134.964 305.183 133.977 305.183C132.991 305.183 132.191 304.383 132.191 303.397V290.298Z" fill="#C4C9D6"/>
<path d="M79.7939 292.084C79.7939 290.769 80.8602 289.702 82.1756 289.702C83.4909 289.702 84.5572 290.769 84.5572 292.084V301.611C84.5572 302.926 83.4909 303.992 82.1756 303.992C80.8602 303.992 79.7939 302.926 79.7939 301.611V292.084Z" fill="#C4C9D6"/>
<path d="M183.397 294.466C183.397 293.15 184.463 292.084 185.779 292.084C187.094 292.084 188.16 293.15 188.16 294.466V299.229C188.16 300.544 187.094 301.611 185.779 301.611C184.463 301.611 183.397 300.544 183.397 299.229V294.466Z" fill="#C4C9D6"/>
<path d="M54.7862 284.343C54.7862 283.357 55.586 282.557 56.5725 282.557C57.559 282.557 58.3588 283.357 58.3588 284.343V309.351C58.3588 310.338 57.559 311.137 56.5725 311.137C55.586 311.137 54.7862 310.338 54.7862 309.351V284.343Z" fill="#C4C9D6"/>
<path d="M260.802 295.656C260.802 294.341 261.868 293.275 263.183 293.275C264.499 293.275 265.565 294.341 265.565 295.656V298.038C265.565 299.354 264.499 300.42 263.183 300.42C261.868 300.42 260.802 299.354 260.802 298.038V295.656Z" fill="#C4C9D6"/>
<path d="M157.198 287.321C157.198 286.005 158.265 284.939 159.58 284.939C160.896 284.939 161.962 286.005 161.962 287.321V306.374C161.962 307.689 160.896 308.756 159.58 308.756C158.265 308.756 157.198 307.689 157.198 306.374V287.321Z" fill="#C4C9D6"/>
<path d="M105.992 278.985C105.992 277.669 107.059 276.603 108.374 276.603C109.689 276.603 110.756 277.669 110.756 278.985V314.71C110.756 316.025 109.689 317.092 108.374 317.092C107.059 317.092 105.992 316.025 105.992 314.71V278.985Z" fill="#C4C9D6"/>
<path d="M209.595 281.366C209.595 280.051 210.662 278.985 211.977 278.985C213.292 278.985 214.359 280.051 214.359 281.366V312.328C214.359 313.644 213.292 314.71 211.977 314.71C210.662 314.71 209.595 313.644 209.595 312.328V281.366Z" fill="#C4C9D6"/>
<path d="M34.542 287.321C34.542 286.005 35.6083 284.939 36.9236 284.939C38.239 284.939 39.3053 286.005 39.3053 287.321V306.374C39.3053 307.689 38.239 308.756 36.9236 308.756C35.6083 308.756 34.542 307.689 34.542 306.374V287.321Z" fill="#C4C9D6"/>
<path d="M241.748 287.321C241.748 286.005 242.814 284.939 244.13 284.939C245.445 284.939 246.511 286.005 246.511 287.321V306.374C246.511 307.689 245.445 308.756 244.13 308.756C242.814 308.756 241.748 307.689 241.748 306.374V287.321Z" fill="#C4C9D6"/>
<path d="M138.145 287.321C138.145 286.005 139.211 284.939 140.527 284.939C141.842 284.939 142.908 286.005 142.908 287.321V306.374C142.908 307.689 141.842 308.756 140.527 308.756C139.211 308.756 138.145 307.689 138.145 306.374V287.321Z" fill="#C4C9D6"/>
<path d="M86.9389 296.847C86.9389 296.19 87.4721 295.656 88.1298 295.656H89.3206C89.9783 295.656 90.5114 296.19 90.5114 296.847C90.5114 297.505 89.9783 298.038 89.3206 298.038H88.1298C87.4721 298.038 86.9389 297.505 86.9389 296.847Z" fill="#C4C9D6"/>
<path d="M190.542 290.298C190.542 289.311 191.342 288.511 192.328 288.511C193.315 288.511 194.114 289.311 194.114 290.298V303.397C194.114 304.383 193.315 305.183 192.328 305.183C191.342 305.183 190.542 304.383 190.542 303.397V290.298Z" fill="#C4C9D6"/>
<path d="M60.7404 278.985C60.7404 277.669 61.8068 276.603 63.1221 276.603C64.4375 276.603 65.5038 277.669 65.5038 278.985V314.71C65.5038 316.025 64.4375 317.092 63.1221 317.092C61.8068 317.092 60.7404 316.025 60.7404 314.71V278.985Z" fill="#C4C9D6"/>
<path d="M164.343 295.656C164.343 294.341 165.41 293.275 166.725 293.275C168.041 293.275 169.107 294.341 169.107 295.656V298.038C169.107 299.354 168.041 300.42 166.725 300.42C165.41 300.42 164.343 299.354 164.343 298.038V295.656Z" fill="#C4C9D6"/>
<path d="M111.947 282.557C111.947 281.242 113.013 280.176 114.328 280.176C115.644 280.176 116.71 281.242 116.71 282.557V311.137C116.71 312.453 115.644 313.519 114.328 313.519C113.013 313.519 111.947 312.453 111.947 311.137V282.557Z" fill="#C4C9D6"/>
<path d="M215.55 278.985C215.55 277.669 216.616 276.603 217.931 276.603C219.247 276.603 220.313 277.669 220.313 278.985V314.71C220.313 316.025 219.247 317.092 217.931 317.092C216.616 317.092 215.55 316.025 215.55 314.71V278.985Z" fill="#C4C9D6"/>
<rect x="320.344" y="106.313" width="238.168" height="138.137" rx="16.9959" fill="#C4C9D6"/>
<rect x="27.3971" y="124.176" width="238.168" height="7.14504" rx="3.57252" fill="#C4C9D6"/>
<rect x="27.397" y="146.802" width="189.344" height="7.14504" rx="3.57252" fill="#C4C9D6"/>
<rect x="27.397" y="169.427" width="189.344" height="5.9542" rx="2.9771" fill="#C4C9D6"/>
<rect x="27.397" y="190.863" width="189.344" height="5.9542" rx="2.9771" fill="#C4C9D6"/>
<rect x="27.397" y="212.298" width="238.168" height="7.14504" rx="3.57252" fill="#C4C9D6"/>
<rect x="27.397" y="234.924" width="238.168" height="7.14504" rx="3.57252" fill="#C4C9D6"/>
<rect x="321.534" y="261.122" width="236.977" height="67.8779" rx="16.9959" fill="#C4C9D6"/>
<rect x="17.8702" y="17" width="540.641" height="72.6412" rx="16.9959" fill="#01CB9D"/>
<circle cx="308.435" cy="45.5801" r="10.7176" fill="#EEF5F8"/>
<g clip-path="url(#clip0)">
<path d="M339.396 52.8292C338.485 52.7243 336.448 52.7252 336.448 52.7252C336.448 52.7252 334.512 52.8715 333.79 53.0369L298.288 74.5086L272.206 60.4657C271.273 60.3229 270.154 60.2587 269.038 60.2839C267.922 60.3092 266.879 60.4223 266.085 60.6041L230.901 78.1794C230.901 78.1794 229.568 78.9237 229.346 81.2017C229.124 83.4796 230.678 84.2239 230.678 84.2239C230.678 84.2239 238.039 84.8779 240.616 84.8779H376.635C377.911 84.8779 379.174 84.8201 380.353 84.7079C381.532 84.5957 382.603 84.4312 383.505 84.2239C384.407 84.0166 385.685 83.687 385.685 83.687C385.685 83.687 389.904 83.687 389.904 80.71C389.904 77.7329 386.573 75.9466 386.573 75.9466L339.396 52.8292Z" fill="#EEF5F8"/>
</g>
<defs>
<filter id="filter0_b" x="-88.5281" y="-88.5281" width="750.056" height="524.056" filterUnits="userSpaceOnUse" color-interpolation-filters="sRGB">
<feFlood flood-opacity="0" result="BackgroundImageFix"/>
<feGaussianBlur in="BackgroundImage" stdDeviation="44.2641"/>
<feComposite in2="SourceAlpha" operator="in" result="effect1_backgroundBlur"/>
<feBlend mode="normal" in="SourceGraphic" in2="effect1_backgroundBlur" result="shape"/>
</filter>
<clipPath id="clip0">
<rect width="288.183" height="35.7252" fill="white" transform="translate(169.107 49.1527)"/>
</clipPath>
</defs>
</svg>
