<svg width="114" height="193" viewBox="0 0 114 193" fill="none" xmlns="http://www.w3.org/2000/svg">
<path d="M12.5898 20.6L19.5198 27.53" stroke="#B2DBF7" stroke-width="1.96" stroke-linecap="round" stroke-linejoin="round"/>
<path d="M9.12014 18.11C9.66138 18.11 10.1001 17.6713 10.1001 17.13C10.1001 16.5888 9.66138 16.15 9.12014 16.15C8.5789 16.15 8.14014 16.5888 8.14014 17.13C8.14014 17.6713 8.5789 18.11 9.12014 18.11Z" fill="#B2DBF7"/>
<path d="M6.35011 15.34C6.89135 15.34 7.33012 14.9012 7.33012 14.36C7.33012 13.8188 6.89135 13.38 6.35011 13.38C5.80887 13.38 5.37012 13.8188 5.37012 14.36C5.37012 14.9012 5.80887 15.34 6.35011 15.34Z" fill="#B2DBF7"/>
<path d="M93.4498 4.14001H20.5498C12.9559 4.14001 6.7998 10.2961 6.7998 17.89V174.79C6.7998 182.384 12.9559 188.54 20.5498 188.54H93.4498C101.044 188.54 107.2 182.384 107.2 174.79V17.89C107.2 10.2961 101.044 4.14001 93.4498 4.14001Z" fill="#E5F2FF"/>
<path d="M93.4498 4.14001H79.5698C83.2157 4.14266 86.7116 5.59217 89.2896 8.17022C91.8677 10.7483 93.3172 14.2441 93.3198 17.89V174.79C93.3172 178.436 91.8677 181.932 89.2896 184.51C86.7116 187.088 83.2157 188.537 79.5698 188.54H93.4498C97.0965 188.54 100.594 187.091 103.173 184.513C105.751 181.934 107.2 178.437 107.2 174.79V17.89C107.2 14.2433 105.751 10.7459 103.173 8.1673C100.594 5.58867 97.0965 4.14001 93.4498 4.14001Z" fill="#B2DBF7"/>
<path d="M14.0698 174.79V17.89C14.0725 14.2441 15.522 10.7483 18.1 8.17022C20.6781 5.59217 24.1739 4.14266 27.8198 4.14001H20.5498C16.9031 4.14001 13.4057 5.58867 10.8271 8.1673C8.24845 10.7459 6.7998 14.2433 6.7998 17.89V174.79C6.7998 178.437 8.24845 181.934 10.8271 184.513C13.4057 187.091 16.9031 188.54 20.5498 188.54H27.8198C24.1739 188.537 20.6781 187.088 18.1 184.51C15.522 181.932 14.0725 178.436 14.0698 174.79Z" fill="white"/>
<path d="M33.0602 40.94V33.68L26.7702 30.05L20.4902 33.68V40.94L26.7702 44.57L33.0602 40.94Z" stroke="#B2DBF7" stroke-width="0.98" stroke-linecap="round" stroke-linejoin="round"/>
<path d="M51.3702 32.73H37.7402" stroke="#B2DBF7" stroke-width="0.98" stroke-linecap="round" stroke-linejoin="round"/>
<path d="M51.3702 37.31H37.7402" stroke="#B2DBF7" stroke-width="0.98" stroke-linecap="round" stroke-linejoin="round"/>
<path d="M45.9502 41.9H37.7402" stroke="#B2DBF7" stroke-width="0.98" stroke-linecap="round" stroke-linejoin="round"/>
<path d="M74.9701 40.94V33.68L68.6801 30.05L62.3901 33.68V40.94L68.6801 44.57L74.9701 40.94Z" stroke="#B2DBF7" stroke-width="0.98" stroke-linecap="round" stroke-linejoin="round"/>
<path d="M93.2699 32.73H79.6499" stroke="#B2DBF7" stroke-width="0.98" stroke-linecap="round" stroke-linejoin="round"/>
<path d="M93.2699 37.31H79.6499" stroke="#B2DBF7" stroke-width="0.98" stroke-linecap="round" stroke-linejoin="round"/>
<path d="M87.8599 41.9H79.6499" stroke="#B2DBF7" stroke-width="0.98" stroke-linecap="round" stroke-linejoin="round"/>
<path d="M48.2 53.8H24.02C21.2586 53.8 19.02 56.0386 19.02 58.8V93.8C19.02 96.5614 21.2586 98.8 24.02 98.8H48.2C50.9614 98.8 53.2 96.5614 53.2 93.8V58.8C53.2 56.0386 50.9614 53.8 48.2 53.8Z" fill="#0480FE"/>
<path d="M48.2 53.8H24.02C21.2586 53.8 19.02 56.0386 19.02 58.8V93.8C19.02 96.5614 21.2586 98.8 24.02 98.8H48.2C50.9614 98.8 53.2 96.5614 53.2 93.8V58.8C53.2 56.0386 50.9614 53.8 48.2 53.8Z" fill="#01CC9B"/>
<path d="M89.9798 53.8H65.7998C63.0384 53.8 60.7998 56.0386 60.7998 58.8V93.8C60.7998 96.5614 63.0384 98.8 65.7998 98.8H89.9798C92.7412 98.8 94.9798 96.5614 94.9798 93.8V58.8C94.9798 56.0386 92.7412 53.8 89.9798 53.8Z" fill="#0480FE"/>
<path d="M89.9798 53.8H65.7998C63.0384 53.8 60.7998 56.0386 60.7998 58.8V93.8C60.7998 96.5614 63.0384 98.8 65.7998 98.8H89.9798C92.7412 98.8 94.9798 96.5614 94.9798 93.8V58.8C94.9798 56.0386 92.7412 53.8 89.9798 53.8Z" fill="#01CC9B"/>
<path d="M50.2 104.38H22.02C20.3632 104.38 19.02 105.723 19.02 107.38V108.06C19.02 109.717 20.3632 111.06 22.02 111.06H50.2C51.8569 111.06 53.2 109.717 53.2 108.06V107.38C53.2 105.723 51.8569 104.38 50.2 104.38Z" fill="white"/>
<path d="M91.9798 104.38H63.7998C62.143 104.38 60.7998 105.723 60.7998 107.38V108.06C60.7998 109.717 62.143 111.06 63.7998 111.06H91.9798C93.6367 111.06 94.9798 109.717 94.9798 108.06V107.38C94.9798 105.723 93.6367 104.38 91.9798 104.38Z" fill="white"/>
<path d="M50.2 114.79H22.02C20.3632 114.79 19.02 116.133 19.02 117.79V118.47C19.02 120.127 20.3632 121.47 22.02 121.47H50.2C51.8569 121.47 53.2 120.127 53.2 118.47V117.79C53.2 116.133 51.8569 114.79 50.2 114.79Z" fill="white"/>
<path d="M91.9798 114.79H63.7998C62.143 114.79 60.7998 116.133 60.7998 117.79V118.47C60.7998 120.127 62.143 121.47 63.7998 121.47H91.9798C93.6367 121.47 94.9798 120.127 94.9798 118.47V117.79C94.9798 116.133 93.6367 114.79 91.9798 114.79Z" fill="white"/>
<path d="M19.6001 130.11H94.9801" stroke="#B2DBF7" stroke-width="0.98" stroke-linecap="round" stroke-linejoin="round"/>
<path d="M19.6001 137.01H94.9801" stroke="#B2DBF7" stroke-width="0.98" stroke-linecap="round" stroke-linejoin="round"/>
<path d="M19.6001 143.91H94.9801" stroke="#B2DBF7" stroke-width="0.98" stroke-linecap="round" stroke-linejoin="round"/>
<path d="M19.6001 150.81H94.9801" stroke="#B2DBF7" stroke-width="0.98" stroke-linecap="round" stroke-linejoin="round"/>
<path d="M19.6001 157.71H94.9801" stroke="#B2DBF7" stroke-width="0.98" stroke-linecap="round" stroke-linejoin="round"/>
<path d="M19.6001 164.61H76.4901" stroke="#B2DBF7" stroke-width="0.98" stroke-linecap="round" stroke-linejoin="round"/>
<path d="M26.1802 4.14001L28.3102 7.49001C29.4023 9.20281 30.9084 10.6128 32.6894 11.5898C34.4704 12.5668 36.4688 13.0793 38.5002 13.08H75.5002C77.5315 13.0793 79.53 12.5668 81.311 11.5898C83.0919 10.6128 84.598 9.20281 85.6902 7.49001L87.8202 4.14001" fill="#0480FE"/>
<path d="M37.0498 178.37H76.9498" stroke="white" stroke-width="1.96" stroke-linecap="round" stroke-linejoin="round"/>
<path d="M93.4498 4.14001H20.5498C12.9559 4.14001 6.7998 10.2961 6.7998 17.89V174.79C6.7998 182.384 12.9559 188.54 20.5498 188.54H93.4498C101.044 188.54 107.2 182.384 107.2 174.79V17.89C107.2 10.2961 101.044 4.14001 93.4498 4.14001Z" stroke="#0480FE" stroke-width="3.92" stroke-linecap="round" stroke-linejoin="round"/>
</svg>
