<svg width="177" height="347" viewBox="0 0 177 347" fill="none" xmlns="http://www.w3.org/2000/svg">
<g filter="url(#filter0_b)">
<rect width="177" height="347" rx="22.132" fill="#DADEE9"/>
</g>
<path d="M9 307.952C9 307.532 9.34112 307.19 9.7619 307.19H11.2857C11.7065 307.19 12.0476 307.532 12.0476 307.952C12.0476 308.373 11.7065 308.714 11.2857 308.714H9.7619C9.34112 308.714 9 308.373 9 307.952Z" fill="#C4C9D6"/>
<path d="M141.571 301.476C141.571 300.845 142.083 300.333 142.714 300.333C143.345 300.333 143.857 300.845 143.857 301.476V314.429C143.857 315.06 143.345 315.571 142.714 315.571C142.083 315.571 141.571 315.06 141.571 314.429V301.476Z" fill="#C4C9D6"/>
<path d="M75.2857 304.143C75.2857 303.301 75.9679 302.619 76.8095 302.619C77.6511 302.619 78.3333 303.301 78.3333 304.143V311.762C78.3333 312.603 77.6511 313.286 76.8095 313.286C75.9679 313.286 75.2857 312.603 75.2857 311.762V304.143Z" fill="#C4C9D6"/>
<path d="M41.7619 300.333C41.7619 299.492 42.4441 298.81 43.2857 298.81C44.1273 298.81 44.8095 299.492 44.8095 300.333V315.571C44.8095 316.413 44.1273 317.095 43.2857 317.095C42.4441 317.095 41.7619 316.413 41.7619 315.571V300.333Z" fill="#C4C9D6"/>
<path d="M108.048 307.952C108.048 307.532 108.389 307.19 108.81 307.19H110.333C110.754 307.19 111.095 307.532 111.095 307.952C111.095 308.373 110.754 308.714 110.333 308.714H108.81C108.389 308.714 108.048 308.373 108.048 307.952Z" fill="#C4C9D6"/>
<path d="M25.7619 296.143C25.7619 295.512 26.2736 295 26.9048 295C27.5359 295 28.0476 295.512 28.0476 296.143V319.762C28.0476 320.393 27.5359 320.905 26.9048 320.905C26.2736 320.905 25.7619 320.393 25.7619 319.762V296.143Z" fill="#C4C9D6"/>
<path d="M158.333 296.143C158.333 295.512 158.845 295 159.476 295C160.107 295 160.619 295.512 160.619 296.143V319.762C160.619 320.393 160.107 320.905 159.476 320.905C158.845 320.905 158.333 320.393 158.333 319.762V296.143Z" fill="#C4C9D6"/>
<path d="M92.0476 299.952C92.0476 299.321 92.5593 298.81 93.1905 298.81C93.8217 298.81 94.3333 299.321 94.3333 299.952V315.952C94.3333 316.584 93.8217 317.095 93.1905 317.095C92.5593 317.095 92.0476 316.584 92.0476 315.952V299.952Z" fill="#C4C9D6"/>
<path d="M58.5238 307.952C58.5238 307.532 58.8649 307.19 59.2857 307.19H60.8095C61.2303 307.19 61.5714 307.532 61.5714 307.952C61.5714 308.373 61.2303 308.714 60.8095 308.714H59.2857C58.8649 308.714 58.5238 308.373 58.5238 307.952Z" fill="#C4C9D6"/>
<path d="M124.81 301.857C124.81 301.016 125.492 300.333 126.333 300.333C127.175 300.333 127.857 301.016 127.857 301.857V314.048C127.857 314.889 127.175 315.571 126.333 315.571C125.492 315.571 124.81 314.889 124.81 314.048V301.857Z" fill="#C4C9D6"/>
<path d="M12.8095 307.19C12.8095 306.349 13.4918 305.667 14.3333 305.667C15.1749 305.667 15.8571 306.349 15.8571 307.19V308.714C15.8571 309.556 15.1749 310.238 14.3333 310.238C13.4918 310.238 12.8095 309.556 12.8095 308.714V307.19Z" fill="#C4C9D6"/>
<path d="M145.381 296.524C145.381 295.682 146.063 295 146.905 295C147.746 295 148.429 295.682 148.429 296.524V319.381C148.429 320.223 147.746 320.905 146.905 320.905C146.063 320.905 145.381 320.223 145.381 319.381V296.524Z" fill="#C4C9D6"/>
<path d="M79.0952 298.81C79.0952 297.968 79.7775 297.286 80.619 297.286C81.4606 297.286 82.1429 297.968 82.1429 298.81V317.095C82.1429 317.937 81.4606 318.619 80.619 318.619C79.7775 318.619 79.0952 317.937 79.0952 317.095V298.81Z" fill="#C4C9D6"/>
<path d="M46.3333 307.19C46.3333 306.349 47.0156 305.667 47.8571 305.667C48.6987 305.667 49.381 306.349 49.381 307.19V308.714C49.381 309.556 48.6987 310.238 47.8571 310.238C47.0156 310.238 46.3333 309.556 46.3333 308.714V307.19Z" fill="#C4C9D6"/>
<path d="M112.619 306.81C112.619 306.178 113.131 305.667 113.762 305.667C114.393 305.667 114.905 306.178 114.905 306.81V309.095C114.905 309.726 114.393 310.238 113.762 310.238C113.131 310.238 112.619 309.726 112.619 309.095V306.81Z" fill="#C4C9D6"/>
<path d="M29.5714 304.143C29.5714 303.301 30.2537 302.619 31.0952 302.619C31.9368 302.619 32.619 303.301 32.619 304.143V311.762C32.619 312.603 31.9368 313.286 31.0952 313.286C30.2537 313.286 29.5714 312.603 29.5714 311.762V304.143Z" fill="#C4C9D6"/>
<path d="M162.143 304.143C162.143 303.301 162.825 302.619 163.667 302.619C164.508 302.619 165.19 303.301 165.19 304.143V311.762C165.19 312.603 164.508 313.286 163.667 313.286C162.825 313.286 162.143 312.603 162.143 311.762V304.143Z" fill="#C4C9D6"/>
<path d="M95.8571 296.524C95.8571 295.682 96.5394 295 97.381 295C98.2225 295 98.9048 295.682 98.9048 296.524V319.381C98.9048 320.223 98.2225 320.905 97.381 320.905C96.5394 320.905 95.8571 320.223 95.8571 319.381V296.524Z" fill="#C4C9D6"/>
<path d="M63.0952 306.048C63.0952 305.416 63.6069 304.905 64.2381 304.905C64.8693 304.905 65.381 305.416 65.381 306.048V309.857C65.381 310.488 64.8693 311 64.2381 311C63.6069 311 63.0952 310.488 63.0952 309.857V306.048Z" fill="#C4C9D6"/>
<path d="M129.381 296.143C129.381 295.512 129.893 295 130.524 295C131.155 295 131.667 295.512 131.667 296.143V319.762C131.667 320.393 131.155 320.905 130.524 320.905C129.893 320.905 129.381 320.393 129.381 319.762V296.143Z" fill="#C4C9D6"/>
<path d="M17.381 303.762C17.381 303.131 17.8926 302.619 18.5238 302.619C19.155 302.619 19.6667 303.131 19.6667 303.762V312.143C19.6667 312.774 19.155 313.286 18.5238 313.286C17.8926 313.286 17.381 312.774 17.381 312.143V303.762Z" fill="#C4C9D6"/>
<path d="M149.952 303.762C149.952 303.131 150.464 302.619 151.095 302.619C151.726 302.619 152.238 303.131 152.238 303.762V312.143C152.238 312.774 151.726 313.286 151.095 313.286C150.464 313.286 149.952 312.774 149.952 312.143V303.762Z" fill="#C4C9D6"/>
<path d="M83.6667 303.762C83.6667 303.131 84.1783 302.619 84.8095 302.619C85.4407 302.619 85.9524 303.131 85.9524 303.762V312.143C85.9524 312.774 85.4407 313.286 84.8095 313.286C84.1783 313.286 83.6667 312.774 83.6667 312.143V303.762Z" fill="#C4C9D6"/>
<path d="M50.1429 304.905C50.1429 304.063 50.8251 303.381 51.6667 303.381C52.5082 303.381 53.1905 304.063 53.1905 304.905V311C53.1905 311.842 52.5082 312.524 51.6667 312.524C50.8251 312.524 50.1429 311.842 50.1429 311V304.905Z" fill="#C4C9D6"/>
<path d="M116.429 306.429C116.429 305.587 117.111 304.905 117.952 304.905C118.794 304.905 119.476 305.587 119.476 306.429V309.476C119.476 310.318 118.794 311 117.952 311C117.111 311 116.429 310.318 116.429 309.476V306.429Z" fill="#C4C9D6"/>
<path d="M34.1429 299.952C34.1429 299.321 34.6545 298.81 35.2857 298.81C35.9169 298.81 36.4286 299.321 36.4286 299.952V315.952C36.4286 316.584 35.9169 317.095 35.2857 317.095C34.6545 317.095 34.1429 316.584 34.1429 315.952V299.952Z" fill="#C4C9D6"/>
<path d="M165.952 307.19C165.952 306.349 166.635 305.667 167.476 305.667C168.318 305.667 169 306.349 169 307.19V308.714C169 309.556 168.318 310.238 167.476 310.238C166.635 310.238 165.952 309.556 165.952 308.714V307.19Z" fill="#C4C9D6"/>
<path d="M99.6667 301.857C99.6667 301.016 100.349 300.333 101.19 300.333C102.032 300.333 102.714 301.016 102.714 301.857V314.048C102.714 314.889 102.032 315.571 101.19 315.571C100.349 315.571 99.6667 314.889 99.6667 314.048V301.857Z" fill="#C4C9D6"/>
<path d="M66.9048 296.524C66.9048 295.682 67.587 295 68.4286 295C69.2701 295 69.9524 295.682 69.9524 296.524V319.381C69.9524 320.223 69.2701 320.905 68.4286 320.905C67.587 320.905 66.9048 320.223 66.9048 319.381V296.524Z" fill="#C4C9D6"/>
<path d="M133.19 298.048C133.19 297.206 133.873 296.524 134.714 296.524C135.556 296.524 136.238 297.206 136.238 298.048V317.857C136.238 318.699 135.556 319.381 134.714 319.381C133.873 319.381 133.19 318.699 133.19 317.857V298.048Z" fill="#C4C9D6"/>
<path d="M21.1905 301.857C21.1905 301.016 21.8727 300.333 22.7143 300.333C23.5559 300.333 24.2381 301.016 24.2381 301.857V314.048C24.2381 314.889 23.5559 315.571 22.7143 315.571C21.8727 315.571 21.1905 314.889 21.1905 314.048V301.857Z" fill="#C4C9D6"/>
<path d="M153.762 301.857C153.762 301.016 154.444 300.333 155.286 300.333C156.127 300.333 156.81 301.016 156.81 301.857V314.048C156.81 314.889 156.127 315.571 155.286 315.571C154.444 315.571 153.762 314.889 153.762 314.048V301.857Z" fill="#C4C9D6"/>
<path d="M87.4762 301.857C87.4762 301.016 88.1584 300.333 89 300.333C89.8416 300.333 90.5238 301.016 90.5238 301.857V314.048C90.5238 314.889 89.8416 315.571 89 315.571C88.1584 315.571 87.4762 314.889 87.4762 314.048V301.857Z" fill="#C4C9D6"/>
<path d="M54.7143 307.952C54.7143 307.532 55.0554 307.19 55.4762 307.19H56.2381C56.6589 307.19 57 307.532 57 307.952C57 308.373 56.6589 308.714 56.2381 308.714H55.4762C55.0554 308.714 54.7143 308.373 54.7143 307.952Z" fill="#C4C9D6"/>
<path d="M121 303.762C121 303.131 121.512 302.619 122.143 302.619C122.774 302.619 123.286 303.131 123.286 303.762V312.143C123.286 312.774 122.774 313.286 122.143 313.286C121.512 313.286 121 312.774 121 312.143V303.762Z" fill="#C4C9D6"/>
<path d="M37.9524 296.524C37.9524 295.682 38.6346 295 39.4762 295C40.3178 295 41 295.682 41 296.524V319.381C41 320.223 40.3178 320.905 39.4762 320.905C38.6346 320.905 37.9524 320.223 37.9524 319.381V296.524Z" fill="#C4C9D6"/>
<path d="M104.238 307.19C104.238 306.349 104.92 305.667 105.762 305.667C106.603 305.667 107.286 306.349 107.286 307.19V308.714C107.286 309.556 106.603 310.238 105.762 310.238C104.92 310.238 104.238 309.556 104.238 308.714V307.19Z" fill="#C4C9D6"/>
<path d="M70.7143 298.81C70.7143 297.968 71.3965 297.286 72.2381 297.286C73.0797 297.286 73.7619 297.968 73.7619 298.81V317.095C73.7619 317.937 73.0797 318.619 72.2381 318.619C71.3965 318.619 70.7143 317.937 70.7143 317.095V298.81Z" fill="#C4C9D6"/>
<path d="M137 296.524C137 295.682 137.682 295 138.524 295C139.365 295 140.048 295.682 140.048 296.524V319.381C140.048 320.223 139.365 320.905 138.524 320.905C137.682 320.905 137 320.223 137 319.381V296.524Z" fill="#C4C9D6"/>
<rect x="15" y="67" width="146" height="3.57576" rx="1.78788" fill="#C4C9D6"/>
<rect x="15" y="78.3232" width="116.07" height="3.57576" rx="1.78788" fill="#C4C9D6"/>
<rect x="15" y="89.6465" width="116.07" height="2.9798" rx="1.4899" fill="#C4C9D6"/>
<rect x="15" y="100.374" width="116.07" height="2.9798" rx="1.4899" fill="#C4C9D6"/>
<rect x="15" y="111.101" width="146" height="3.57576" rx="1.78788" fill="#C4C9D6"/>
<rect x="15" y="122.424" width="146" height="3.57576" rx="1.78788" fill="#C4C9D6"/>
<rect x="7" y="150" width="162" height="76" rx="14" fill="#C4C9D6"/>
<rect x="7" y="238" width="162" height="39" rx="14" fill="#01CB9D"/>
<rect x="7" y="14" width="162" height="35" rx="14" fill="#C4C9D6"/>
<defs>
<filter id="filter0_b" x="-88.5281" y="-88.5281" width="354.056" height="524.056" filterUnits="userSpaceOnUse" color-interpolation-filters="sRGB">
<feFlood flood-opacity="0" result="BackgroundImageFix"/>
<feGaussianBlur in="BackgroundImage" stdDeviation="44.2641"/>
<feComposite in2="SourceAlpha" operator="in" result="effect1_backgroundBlur"/>
<feBlend mode="normal" in="SourceGraphic" in2="effect1_backgroundBlur" result="shape"/>
</filter>
</defs>
</svg>
