<svg width="108" height="192" viewBox="0 0 108 192" fill="none" xmlns="http://www.w3.org/2000/svg">
<path d="M96.3801 114.65C99.854 114.65 102.67 111.834 102.67 108.36C102.67 104.886 99.854 102.07 96.3801 102.07C92.9062 102.07 90.0901 104.886 90.0901 108.36C90.0901 111.834 92.9062 114.65 96.3801 114.65Z" stroke="#B2DBF7" stroke-width="1.97" stroke-linecap="round" stroke-linejoin="round"/>
<path d="M49.66 155.07L38.54 166.19" stroke="#B2DBF7" stroke-width="1.97" stroke-linecap="round" stroke-linejoin="round"/>
<path d="M95.8201 151.06V135.33" stroke="#B2DBF7" stroke-width="1.97" stroke-linecap="round" stroke-linejoin="round"/>
<path d="M95.8201 80.28V64.55" stroke="#B2DBF7" stroke-width="1.97" stroke-linecap="round" stroke-linejoin="round"/>
<path d="M52.5601 107.8H68.2901" stroke="#B2DBF7" stroke-width="1.97" stroke-linecap="round" stroke-linejoin="round"/>
<path d="M49.66 61.65L38.54 50.53" stroke="#B2DBF7" stroke-width="1.97" stroke-linecap="round" stroke-linejoin="round"/>
<path d="M14.5901 108.36H30.3101" stroke="#B2DBF7" stroke-width="1.97" stroke-linecap="round" stroke-linejoin="round"/>
<path d="M14.5901 108.36H30.3101" stroke="#B2DBF7" stroke-width="1.97" stroke-linecap="round" stroke-linejoin="round"/>
<path d="M96.3799 26.57V42.3" stroke="#B2DBF7" stroke-width="1.97" stroke-linecap="round" stroke-linejoin="round"/>
<path d="M55.2199 151.08C56.087 151.08 56.7899 150.377 56.7899 149.51C56.7899 148.643 56.087 147.94 55.2199 147.94C54.3528 147.94 53.6499 148.643 53.6499 149.51C53.6499 150.377 54.3528 151.08 55.2199 151.08Z" fill="#B2DBF7"/>
<path d="M59.6701 146.63C60.5372 146.63 61.2401 145.927 61.2401 145.06C61.2401 144.193 60.5372 143.49 59.6701 143.49C58.803 143.49 58.1001 144.193 58.1001 145.06C58.1001 145.927 58.803 146.63 59.6701 146.63Z" fill="#B2DBF7"/>
<path d="M64.12 142.18C64.9871 142.18 65.69 141.477 65.69 140.61C65.69 139.743 64.9871 139.04 64.12 139.04C63.253 139.04 62.55 139.743 62.55 140.61C62.55 141.477 63.253 142.18 64.12 142.18Z" fill="#B2DBF7"/>
<path d="M55.2199 69.89C56.087 69.89 56.7899 69.1871 56.7899 68.32C56.7899 67.4529 56.087 66.75 55.2199 66.75C54.3528 66.75 53.6499 67.4529 53.6499 68.32C53.6499 69.1871 54.3528 69.89 55.2199 69.89Z" fill="#B2DBF7"/>
<path d="M59.6701 74.34C60.5372 74.34 61.2401 73.6371 61.2401 72.77C61.2401 71.9029 60.5372 71.2 59.6701 71.2C58.803 71.2 58.1001 71.9029 58.1001 72.77C58.1001 73.6371 58.803 74.34 59.6701 74.34Z" fill="#B2DBF7"/>
<path d="M64.12 78.79C64.9871 78.79 65.69 78.0871 65.69 77.22C65.69 76.3529 64.9871 75.65 64.12 75.65C63.253 75.65 62.55 76.3529 62.55 77.22C62.55 78.0871 63.253 78.79 64.12 78.79Z" fill="#B2DBF7"/>
<path d="M104.16 116.15L100.82 112.81" stroke="#B2DBF7" stroke-width="1.97" stroke-linecap="round" stroke-linejoin="round"/>
<path d="M91.9301 103.91L88.5901 100.58" stroke="#B2DBF7" stroke-width="1.97" stroke-linecap="round" stroke-linejoin="round"/>
<path d="M88.5901 116.15L91.9301 112.81" stroke="#B2DBF7" stroke-width="1.97" stroke-linecap="round" stroke-linejoin="round"/>
<path d="M100.82 103.91L104.16 100.58" stroke="#B2DBF7" stroke-width="1.97" stroke-linecap="round" stroke-linejoin="round"/>
<path d="M90.64 3.82007H17.36C9.72746 3.82007 3.54004 10.0075 3.54004 17.6401V175.34C3.54004 182.973 9.72746 189.16 17.36 189.16H90.64C98.2726 189.16 104.46 182.973 104.46 175.34V17.6401C104.46 10.0075 98.2726 3.82007 90.64 3.82007Z" fill="#E5F2FF"/>
<path d="M90.6399 3.82007H76.6899C80.3552 3.82007 83.8704 5.2761 86.4622 7.86785C89.0539 10.4596 90.5099 13.9748 90.5099 17.6401V175.34C90.5099 179.005 89.0539 182.521 86.4622 185.112C83.8704 187.704 80.3552 189.16 76.6899 189.16H90.6399C94.3052 189.16 97.8204 187.704 100.412 185.112C103.004 182.521 104.46 179.005 104.46 175.34V17.6401C104.46 15.8252 104.102 14.0281 103.408 12.3514C102.713 10.6747 101.695 9.15116 100.412 7.86785C99.1288 6.58455 97.6053 5.56658 95.9286 4.87206C94.2519 4.17754 92.4548 3.82007 90.6399 3.82007Z" fill="#B2DBF7"/>
<path d="M10.85 175.34V17.6401C10.85 15.8252 11.2075 14.0281 11.902 12.3514C12.5965 10.6747 13.6145 9.15116 14.8978 7.86785C16.1811 6.58455 17.7046 5.56658 19.3814 4.87206C21.0581 4.17754 22.8552 3.82007 24.67 3.82007H17.36C15.5452 3.82007 13.7481 4.17754 12.0714 4.87206C10.3946 5.56658 8.87113 6.58455 7.58782 7.86785C6.30452 9.15116 5.28655 10.6747 4.59203 12.3514C3.89751 14.0281 3.54004 15.8252 3.54004 17.6401V175.34C3.54004 179.005 4.99607 182.521 7.58782 185.112C10.1796 187.704 13.6947 189.16 17.36 189.16H24.67C21.0047 189.16 17.4896 187.704 14.8978 185.112C12.3061 182.521 10.85 179.005 10.85 175.34Z" fill="white"/>
<path d="M23 3.82007L25.15 7.19007C26.2443 8.91221 27.7556 10.3302 29.5439 11.3127C31.3322 12.2951 33.3396 12.8101 35.38 12.8101H72.58C74.6217 12.81 76.6305 12.2949 78.4203 11.3126C80.2102 10.3303 81.7235 8.91235 82.82 7.19007L85 3.82007" fill="#0480FE"/>
<path d="M33.95 178.94H74.05" stroke="white" stroke-width="1.97" stroke-linecap="round" stroke-linejoin="round"/>
<path d="M84.4301 18.43H23.5701C18.0472 18.43 13.5701 22.9071 13.5701 28.43V121.47C13.5701 126.993 18.0472 131.47 23.5701 131.47H84.4301C89.9529 131.47 94.4301 126.993 94.4301 121.47V28.43C94.4301 22.9071 89.9529 18.43 84.4301 18.43Z" fill="#01CC9B"/>
<path d="M53.69 96.38C69.5351 96.38 82.38 83.5351 82.38 67.69C82.38 51.845 69.5351 39 53.69 39C37.845 39 25 51.845 25 67.69C25 83.5351 37.845 96.38 53.69 96.38Z" fill="#DFF3FA"/>
<path d="M82.6901 119.27H25.3201V120.59H82.6901V119.27Z" fill="white"/>
<path d="M32.3199 124.55C34.8991 124.55 36.9899 122.459 36.9899 119.88C36.9899 117.301 34.8991 115.21 32.3199 115.21C29.7407 115.21 27.6499 117.301 27.6499 119.88C27.6499 122.459 29.7407 124.55 32.3199 124.55Z" fill="#DFF3FA"/>
<path d="M77.3499 140.09H30.6499C28.993 140.09 27.6499 141.433 27.6499 143.09V145.06C27.6499 146.717 28.9931 148.06 30.6499 148.06H77.3499C79.0068 148.06 80.3499 146.717 80.3499 145.06V143.09C80.3499 141.433 79.0068 140.09 77.3499 140.09Z" stroke="#B2DBF7" stroke-width="0.99" stroke-linecap="round" stroke-linejoin="round"/>
<path d="M21.9901 145.36C23.4647 145.36 24.6601 144.165 24.6601 142.69C24.6601 141.215 23.4647 140.02 21.9901 140.02C20.5155 140.02 19.3201 141.215 19.3201 142.69C19.3201 144.165 20.5155 145.36 21.9901 145.36Z" fill="#B2DBF7"/>
<path d="M68.6001 149.97H63.1701C62.43 149.97 61.8301 150.568 61.8301 151.305C61.8301 152.042 62.43 152.64 63.1701 152.64H68.6001C69.3401 152.64 69.9401 152.042 69.9401 151.305C69.9401 150.568 69.3401 149.97 68.6001 149.97Z" fill="#B2DBF7"/>
<path d="M79.01 149.97H73.58C72.8399 149.97 72.24 150.568 72.24 151.305C72.24 152.042 72.8399 152.64 73.58 152.64H79.01C79.75 152.64 80.35 152.042 80.35 151.305C80.35 150.568 79.75 149.97 79.01 149.97Z" fill="#B2DBF7"/>
<path d="M30.6501 166.06H77.3501C79.007 166.06 80.3501 164.717 80.3501 163.06V161.09C80.3501 159.433 79.0069 158.09 77.3501 158.09H30.6501C28.9932 158.09 27.6501 159.433 27.6501 161.09V163.06C27.6501 164.717 28.9932 166.06 30.6501 166.06Z" stroke="#B2DBF7" stroke-width="0.99" stroke-linecap="round" stroke-linejoin="round"/>
<path d="M86.0101 163.36C87.4847 163.36 88.6801 162.165 88.6801 160.69C88.6801 159.215 87.4847 158.02 86.0101 158.02C84.5355 158.02 83.3401 159.215 83.3401 160.69C83.3401 162.165 84.5355 163.36 86.0101 163.36Z" fill="#B2DBF7"/>
<path d="M44.8301 167.97H39.4001C38.66 167.97 38.0601 168.568 38.0601 169.305C38.0601 170.042 38.66 170.64 39.4001 170.64H44.8301C45.5701 170.64 46.1701 170.042 46.1701 169.305C46.1701 168.568 45.5701 167.97 44.8301 167.97Z" fill="#B2DBF7"/>
<path d="M34.4199 167.97H28.9899C28.2498 167.97 27.6499 168.568 27.6499 169.305C27.6499 170.042 28.2498 170.64 28.9899 170.64H34.4199C35.16 170.64 35.7599 170.042 35.7599 169.305C35.7599 168.568 35.16 167.97 34.4199 167.97Z" fill="#B2DBF7"/>
<path d="M90.64 3.82007H17.36C9.72746 3.82007 3.54004 10.0075 3.54004 17.6401V175.34C3.54004 182.973 9.72746 189.16 17.36 189.16H90.64C98.2726 189.16 104.46 182.973 104.46 175.34V17.6401C104.46 10.0075 98.2726 3.82007 90.64 3.82007Z" stroke="#0480FE" stroke-width="3.94" stroke-linecap="round" stroke-linejoin="round"/>
<path d="M51.0792 83.2552V59.6138L60.8812 68.7172L48.4395 79.1576L49.2198 81.5788L50 84L50.6877 83.8072L60.198 76.0828L66.2574 70.4552C66.495 70.2069 66.703 69.931 66.8218 69.6552C66.9406 69.3517 67 69.0483 67 68.7448C67 68.4414 66.9406 68.1379 66.8218 67.8345C66.703 67.531 66.495 67.2552 66.2574 67.0345L66.2277 67.0069L50.9307 52.7724C50.6634 52.5241 50.3366 52.3034 49.9802 52.1931C49.6238 52.0552 49.2376 52 48.8812 52C48.5248 52 48.1683 52.0552 47.8119 52.1931C47.5743 52.2759 47.3366 52.4138 47.1287 52.5517C46.802 52.8 46.505 53.1034 46.3267 53.4621C46.2079 53.6552 46.1188 53.8483 46.0891 54.069C46.0297 54.2621 46 54.4828 46 54.6759V80C46 82.2091 47.7909 84 50 84C51 83.5 51.0792 83.669 51.0792 83.2552Z" fill="url(#paint0_linear)"/>
<defs>
<linearGradient id="paint0_linear" x1="59.6948" y1="55.5168" x2="51.9049" y2="90.2516" gradientUnits="userSpaceOnUse">
<stop stop-color="#0480FE"/>
<stop offset="1" stop-color="#00E27E"/>
</linearGradient>
</defs>
</svg>
