<svg width="54" height="53" viewBox="0 0 54 53" fill="none" xmlns="http://www.w3.org/2000/svg">
<path d="M14.1196 27.3432C15.0508 28.0741 16.1156 28.4392 17.3134 28.4392C18.8265 28.3836 20.0874 27.8398 21.0965 26.809C21.583 26.0791 21.8957 25.3297 22.0346 24.5618C22.1178 23.7948 22.1597 23.1477 22.1597 22.623C22.1597 20.3567 21.5799 18.0714 20.4208 15.7669C19.877 14.6624 19.1615 13.763 18.2737 13.0692C17.3674 12.4142 16.326 12.067 15.1483 12.0299C13.5906 12.067 12.2948 12.6956 11.2629 13.913C10.3916 15.1871 9.97498 16.6107 10.0131 18.1832C10.0131 20.2629 10.6211 22.4274 11.8385 24.6746C12.4135 25.7072 13.1891 26.6145 14.1196 27.3432Z" fill="#0C1A38"/>
<path d="M17.6114 36.0665C17.1932 35.5161 16.8224 34.9312 16.5032 34.318C16.1248 33.7175 15.9361 32.993 15.9361 32.1471C15.9361 31.6399 16.0077 31.2165 16.1518 30.8778C16.2681 30.5487 16.3852 30.2199 16.5032 29.8915C15.8902 29.9646 15.2735 30.0023 14.6562 30.0044C11.9166 29.9715 9.76054 29.195 8.1875 27.6787V37.9278C9.57864 37.2886 11.0468 36.8323 12.5552 36.5705C14.5846 36.2716 16.27 36.1036 17.6114 36.0665Z" fill="#0C1A38"/>
<path d="M19.1797 37.6905C18.7508 37.6496 18.32 37.6307 17.8892 37.6338C17.5961 37.5967 16.8456 37.6338 15.6377 37.7466C14.4017 37.9248 13.181 38.1964 11.986 38.5591C11.6929 38.672 11.2811 38.8395 10.7506 39.0642C10.2195 39.3075 9.67945 39.6531 9.1309 40.1025C8.77301 40.4196 8.45609 40.7801 8.1875 41.1758V42.7387C8.18806 43.4432 8.46815 44.1188 8.96627 44.617C9.4644 45.1152 10.1399 45.3954 10.8444 45.3961H25.3272C25.3277 45.3601 25.3298 45.3257 25.3298 45.2907C25.3298 43.8321 24.8534 42.5612 23.902 41.4763C22.895 40.4481 21.3214 39.1867 19.1797 37.6905Z" fill="#0C1A38"/>
<path d="M43.6901 7.60388H10.8444C10.1398 7.6043 9.46415 7.88443 8.96596 8.38272C8.46778 8.88101 8.18778 9.55669 8.1875 10.2613V13.8245C8.35498 13.6464 8.52829 13.4694 8.70955 13.2945C10.3435 11.9488 12.0422 11.0711 13.8039 10.6588C15.5476 10.3037 17.1827 10.1267 18.708 10.1267H30.2048L26.6543 12.199H23.1091C23.47 12.4226 23.8766 12.7507 24.3276 13.1805C24.7606 13.6289 25.1851 14.1807 25.6001 14.8347C25.9971 15.4516 26.349 16.1803 26.6559 17.022C26.9082 17.8626 27.0348 18.8452 27.0348 19.9661C27.0009 22.0231 26.5467 23.6677 25.6733 24.9015C25.2578 25.4834 24.8029 26.0361 24.3117 26.5556C23.7575 27.0816 23.1922 27.5958 22.6162 28.0979C22.2615 28.4684 21.9433 28.8722 21.6659 29.3037C21.3235 29.7706 21.1518 30.3128 21.1518 30.9297C21.1518 31.5281 21.3278 32.0226 21.6786 32.4153C21.9498 32.759 22.2401 33.0871 22.5484 33.3979L24.4988 34.9964C25.6861 35.9615 26.7562 37.0624 27.6873 38.2766C28.5485 39.4919 28.9964 41.0808 29.0313 43.0434C29.0313 43.8548 28.9264 44.6387 28.7176 45.3961H43.6901C44.3947 45.3955 45.0703 45.1153 45.5685 44.6171C46.0668 44.1189 46.3469 43.4433 46.3475 42.7386V10.2608C46.3469 9.5562 46.0668 8.88066 45.5685 8.3825C45.0703 7.88434 44.3946 7.6043 43.6901 7.60388ZM45.7809 19.3259H39.7485V25.3589H36.826V19.3259H30.7936V16.4035H36.826V10.3715H39.7485V16.4035H45.7809V19.3259Z" fill="#0C1A38"/>
</svg>
