<svg width="54" height="53" viewBox="0 0 54 53" fill="none" xmlns="http://www.w3.org/2000/svg">
<path d="M30.7948 32.5785C30.0528 33.3253 30.6808 34.6884 30.6808 34.6884L36.2686 44.0196C36.2686 44.0196 37.1866 45.2492 37.981 45.2492C38.7792 45.2492 39.5689 44.5942 39.5689 44.5942L43.9865 38.2787C43.9865 38.2787 44.4311 37.4816 44.4417 36.7846C44.4576 35.793 42.9615 35.519 42.9615 35.519L32.5008 32.1598C32.5014 32.1598 31.4769 31.8879 30.7948 32.5785Z" fill="#0C1A38"/>
<path d="M30.2661 27.8749C30.8019 28.7812 32.2774 28.5172 32.2774 28.5172L42.7137 25.4665C42.7137 25.4665 44.1357 24.8888 44.3392 24.1188C44.5379 23.3455 44.1039 22.4159 44.1039 22.4159L39.1171 16.5408C39.1171 16.5408 38.6846 15.7972 37.7878 15.723C36.7994 15.6398 36.1899 16.8355 36.1899 16.8355L30.2936 26.1142C30.2936 26.1142 29.7727 27.0401 30.2661 27.8749Z" fill="#0C1A38"/>
<path d="M25.3339 24.2565C26.5635 23.9533 26.7585 22.1683 26.7585 22.1683L26.6748 7.30974C26.6748 7.30974 26.4898 5.47753 25.6662 4.97933C24.374 4.19652 23.9914 4.60462 23.622 4.66027L14.9575 7.87949C14.9575 7.87949 14.1085 8.15986 13.667 8.86794C13.0357 9.87017 14.3077 11.3393 14.3077 11.3393L23.314 23.6168C23.314 23.6168 24.2023 24.5369 25.3339 24.2565Z" fill="#0C1A38"/>
<path d="M23.1946 30.2693C23.2264 29.1234 21.8187 28.4349 21.8187 28.4349L12.5066 23.7285C12.5066 23.7285 11.126 23.1604 10.456 23.5568C9.94248 23.8605 9.48721 24.4096 9.44322 24.8945L8.83637 32.3617C8.83637 32.3617 8.74574 33.6565 9.0807 34.2443C9.55558 35.0779 11.1185 34.4981 11.1185 34.4981L21.991 32.0946C22.4134 31.8105 23.1543 31.784 23.1946 30.2693Z" fill="#0C1A38"/>
<path d="M25.898 34.2984C24.9647 33.8193 23.848 34.813 23.848 34.813L16.5679 42.8266C16.5679 42.8266 15.6595 44.0525 15.89 44.8046C16.1084 45.5111 16.4682 45.8619 16.9781 46.1084L24.2889 48.416C24.2889 48.416 25.1756 48.5999 25.8471 48.4059C26.7995 48.1288 26.6241 46.6389 26.6241 46.6389L26.7889 35.7851C26.7889 35.7851 26.7524 34.7404 25.898 34.2984Z" fill="#0C1A38"/>
</svg>
