<svg width="16" height="13" viewBox="0 0 16 13" fill="none" xmlns="http://www.w3.org/2000/svg">
<path d="M13.569 0.387755C13.8331 0.136297 14.1846 -0.00271898 14.5493 4.03038e-05C14.9139 0.00279959 15.2633 0.147119 15.5236 0.402545C15.7839 0.657971 15.9347 1.00453 15.9444 1.36908C15.954 1.73364 15.8217 2.08768 15.5752 2.35651L8.09399 11.7128C7.96534 11.8513 7.81008 11.9625 7.63748 12.0397C7.46488 12.1169 7.27849 12.1585 7.08946 12.162C6.90042 12.1655 6.71262 12.1308 6.53728 12.0601C6.36194 11.9893 6.20267 11.884 6.06898 11.7503L1.10773 6.78901C0.969572 6.66026 0.858755 6.50501 0.781895 6.33251C0.705035 6.16002 0.663707 5.9738 0.660375 5.78499C0.657044 5.59617 0.691778 5.40861 0.762505 5.23351C0.833232 5.05841 0.938503 4.89934 1.07204 4.76581C1.20557 4.63227 1.36464 4.527 1.53974 4.45628C1.71484 4.38555 1.9024 4.35081 2.09121 4.35415C2.28003 4.35748 2.46625 4.39881 2.63874 4.47567C2.81124 4.55253 2.96649 4.66334 3.09523 4.80151L7.02149 8.72588L13.5334 0.429006C13.5451 0.41457 13.5576 0.400798 13.5709 0.387755H13.569Z" fill="#01CB9D"/>
</svg>
