<svg width="940" height="1706" viewBox="0 0 940 1706" fill="none" xmlns="http://www.w3.org/2000/svg">
<path d="M261.64 913.545L676.079 1344.69L890.805 1578.53C890.78 1587.65 889.492 1598.07 886.947 1607.18C885.659 1617.6 881.855 1626.71 876.792 1635.82C869.188 1652.74 856.554 1667.04 842.667 1678.73C833.833 1685.22 823.739 1691.71 813.652 1695.59C798.52 1702.06 783.399 1704.62 768.285 1704.58C753.172 1704.54 736.805 1701.89 721.71 1695.33C706.61 1690.08 692.785 1679.62 681.482 1667.86L34.7087 993.704L33.453 992.397C23.4059 981.945 14.6256 968.891 9.62731 954.544C4.62905 940.196 2.14969 925.856 2.18937 911.523C2.22905 897.19 4.78776 882.864 9.86538 868.544C14.9394 855.528 23.7919 842.522 33.9002 830.823L291.571 565.719L824.356 2.26894L938.538 216.019L511.739 653.631L261.64 913.545Z" fill="url(#paint0_linear)"/>
<defs>
<linearGradient id="paint0_linear" x1="325.569" y1="1516.25" x2="816.118" y2="-293.1" gradientUnits="userSpaceOnUse">
<stop stop-color="#00E27E"/>
<stop offset="1" stop-color="#0480FE"/>
</linearGradient>
</defs>
</svg>
