<svg width="865" height="1452" viewBox="0 0 865 1452" fill="none" xmlns="http://www.w3.org/2000/svg">
<path d="M864.617 121.839L663.926 345.844L276.638 758.805L508.78 1009.3C519.332 1020.57 527.537 1034.35 533.395 1048.12C539.254 1061.9 541.593 1076.92 541.586 1091.94C541.579 1106.97 539.226 1121.99 533.355 1135.76C527.483 1149.53 519.266 1163.29 508.703 1174.56L256.379 1443.61C251.684 1448.61 245.818 1451.11 238.78 1451.11L25.2903 1451.01C3.00286 1451 -8.71394 1422.2 7.71643 1404.68L303.462 1093.09L64.2847 837.578C54.9058 826.307 46.7005 813.783 42.0143 801.262C37.3286 787.488 34.9887 773.716 34.9951 759.945C35.0014 746.173 37.3541 732.403 42.0526 718.634C46.7511 704.864 54.9679 692.349 64.3567 682.338L65.5304 681.086L669.936 35.3649C680.498 24.1023 693.406 14.0928 707.484 9.09154C721.563 2.83837 736.814 0.341559 750.89 0.348089C764.966 0.35462 779.041 2.86503 793.115 9.13127C802.497 12.8914 811.878 19.1555 820.087 25.419C832.985 36.6925 844.709 50.4693 851.739 66.7478C856.427 75.5135 859.942 84.2788 861.11 94.2948C863.452 103.06 864.621 113.076 864.617 121.839Z" fill="url(#paint0_linear)"/>
<defs>
<linearGradient id="paint0_linear" x1="432.673" y1="0.200452" x2="432" y2="1451.2" gradientUnits="userSpaceOnUse">
<stop offset="0.0864582" stop-color="#ABB6D4" stop-opacity="0"/>
<stop offset="0.925" stop-color="#E5F2FF"/>
</linearGradient>
</defs>
</svg>
