<svg width="28" height="28" viewBox="0 0 28 28" fill="none" xmlns="http://www.w3.org/2000/svg">
<g clip-path="url(#clip0)">
<path d="M5.49017 0.0078125C2.4741 0.0078125 0.00561523 2.47624 0.00561523 5.49237V22.5119C0.00561523 25.528 2.47404 27.9956 5.49017 27.9956H22.5097C25.5258 27.9956 27.9934 25.528 27.9934 22.5119V5.49237C27.9934 2.47629 25.5258 0.0078125 22.5097 0.0078125H5.49017ZM6.86962 4.62636C8.31576 4.62636 9.20653 5.57572 9.23402 6.82366C9.23402 8.04404 8.31571 9.02009 6.84165 9.02009H6.81452C5.3959 9.02009 4.47898 8.04409 4.47898 6.82366C4.47898 5.57575 5.42364 4.62636 6.86959 4.62636H6.86962ZM19.3319 10.459C22.1131 10.459 24.198 12.2769 24.198 16.1832V23.4758H19.9713V16.6722C19.9713 14.9625 19.3596 13.7961 17.83 13.7961C16.6623 13.7961 15.9662 14.5823 15.6606 15.3417C15.549 15.6134 15.5216 15.9929 15.5216 16.373V23.4758H11.2949C11.2949 23.4758 11.3503 11.9507 11.2949 10.7573H15.5224V12.5584C16.0841 11.6918 17.0888 10.459 19.3319 10.459V10.459ZM4.72829 10.7582H8.95498V23.4759H4.72829V10.7582Z" fill="#0A66C2"/>
</g>
<defs>
<clipPath id="clip0">
<rect width="28" height="28" fill="white" transform="translate(0 0.000244141)"/>
</clipPath>
</defs>
</svg>
