<svg width="69" height="26" viewBox="0 0 69 26" fill="none" xmlns="http://www.w3.org/2000/svg">
<g clip-path="url(#clip0)">
<path d="M18.001 19.5224V16.4741C18.001 14.7707 18.6368 13.3138 19.9304 12.081C21.2021 10.8483 22.7588 10.2207 24.5567 10.2207C26.2669 10.2207 27.7579 10.781 28.9857 11.9017C30.2136 13.0224 30.8275 14.4345 30.8275 16.1155C30.8275 16.7655 30.7617 17.3034 30.6082 17.7069C30.4547 18.1103 30.2355 18.4017 29.9066 18.5586C29.5996 18.7155 29.2927 18.8276 29.0296 18.8724C28.7665 18.9172 28.3937 18.9397 27.9552 18.9397H21.3117V19.6793C21.3117 20.7552 21.6845 21.6293 22.4519 22.2569C23.1974 22.8845 24.184 23.2207 25.4118 23.2207C26.2669 23.2207 27.0782 23.019 27.8456 22.6155C28.613 22.2121 29.0734 22.0103 29.2488 22.0103C29.5996 22.0103 29.9066 22.1897 30.1697 22.5259C30.4109 22.8621 30.5424 23.1983 30.5424 23.5345C30.5424 24.0724 30.0382 24.6103 29.0296 25.1483C28.021 25.6862 26.7932 25.9552 25.3241 25.9552C23.1754 25.9552 21.4433 25.3724 20.062 24.1845C18.6807 22.9966 18.001 21.45 18.001 19.5224ZM21.3117 16.7879H26.5301C26.9905 16.7879 27.2975 16.7207 27.4509 16.6086C27.6044 16.4741 27.6921 16.2276 27.6921 15.8465C27.6921 14.9948 27.3852 14.2776 26.7712 13.6948C26.1573 13.1121 25.4118 12.7983 24.5129 12.7983C23.6359 12.7983 22.8685 13.0672 22.2546 13.6276C21.6187 14.1879 21.3117 14.9052 21.3117 15.7569V16.7879Z" fill="white"/>
<path d="M33.7655 24.5431V2.44309C33.7655 2.1293 33.919 1.86034 34.2259 1.65861C34.5329 1.45689 34.9276 1.34482 35.4099 1.34482C35.8704 1.34482 36.265 1.45689 36.5939 1.65861C36.9228 1.86034 37.0763 2.1293 37.0763 2.44309V24.5431C37.0763 24.8121 36.9009 25.081 36.572 25.3052C36.2431 25.5517 35.8484 25.6638 35.4099 25.6638C34.9495 25.6638 34.5548 25.5517 34.2479 25.3052C33.919 25.081 33.7655 24.8345 33.7655 24.5431Z" fill="white"/>
<path d="M40.5187 4.84139C40.5187 4.34829 40.716 3.92243 41.0887 3.58622C41.4615 3.25001 41.9219 3.0707 42.4481 3.0707C42.9744 3.0707 43.4129 3.25001 43.8075 3.58622C44.1803 3.92243 44.3776 4.34829 44.3776 4.84139C44.3776 5.31208 44.1803 5.71553 43.8075 6.07415C43.4348 6.43277 42.9744 6.61208 42.4481 6.61208C41.9219 6.61208 41.4834 6.43277 41.0887 6.07415C40.716 5.71553 40.5187 5.31208 40.5187 4.84139ZM40.8037 24.5431V11.5207C40.8037 11.2069 40.9572 10.9379 41.2641 10.7362C41.5711 10.5345 41.9658 10.4224 42.4481 10.4224C42.9305 10.4224 43.3252 10.5345 43.654 10.7362C43.961 10.9379 44.1364 11.2069 44.1364 11.5207V24.5431C44.1364 24.8121 43.9829 25.081 43.654 25.3052C43.3252 25.5517 42.9305 25.6638 42.4701 25.6638C42.0096 25.6638 41.615 25.5517 41.308 25.3052C40.9791 25.081 40.8037 24.8345 40.8037 24.5431Z" fill="white"/>
<path d="M47.0743 19.5224V16.631C47.0743 14.7259 47.6225 13.1793 48.7188 11.9914C49.815 10.8034 51.4375 10.2207 53.5863 10.2207C54.9456 10.2207 56.0858 10.4672 57.0066 10.9379C57.9275 11.431 58.388 11.969 58.388 12.5517C58.388 12.9103 58.2564 13.2914 57.9933 13.65C57.7302 14.0086 57.4232 14.1879 57.0724 14.1879C56.9628 14.1879 56.5901 14.031 55.9542 13.6948C55.3184 13.381 54.6168 13.2017 53.8274 13.2017C51.5252 13.2017 50.3632 14.3224 50.3632 16.5862V19.4552C50.3632 21.719 51.5252 22.8397 53.8494 22.8397C54.6387 22.8397 55.3622 22.6603 55.9981 22.3241C56.6339 21.9879 57.0286 21.8086 57.1382 21.8086C57.5548 21.8086 57.9056 21.9879 58.1687 22.3241C58.4318 22.6603 58.5634 23.0414 58.5634 23.4224C58.5634 24.0276 58.081 24.5879 57.1163 25.1034C56.1515 25.619 54.9676 25.8655 53.5863 25.8655C51.3937 25.8655 49.7712 25.2828 48.6749 24.1172C47.6225 23.019 47.0743 21.4724 47.0743 19.5224Z" fill="white"/>
<path d="M60.9534 20.6655V4.55001C60.9534 4.25863 61.1288 3.98966 61.4577 3.78794C61.7865 3.5638 62.1812 3.47414 62.5978 3.47414C63.0144 3.47414 63.409 3.58621 63.7379 3.78794C64.0887 4.01207 64.2641 4.25863 64.2641 4.55001V10.4448H68.1011C68.3642 10.4448 68.5835 10.5793 68.7589 10.8259C68.9343 11.0724 69.0001 11.3638 69.0001 11.7C69.0001 12.0362 68.9124 12.3276 68.7589 12.5741C68.5835 12.8207 68.3642 12.9552 68.1011 12.9552H64.2422V20.6655C64.2422 21.4276 64.3957 21.9879 64.7246 22.3017C65.0535 22.6155 65.6235 22.7948 66.4348 22.7948H67.5311C67.9696 22.7948 68.3204 22.9293 68.5616 23.2207C68.8028 23.4897 68.9343 23.8483 68.9343 24.2517C68.9343 24.6552 68.8028 25.0138 68.5616 25.2828C68.3204 25.5517 67.9696 25.7086 67.5311 25.7086H66.4348C62.7732 25.6862 60.9534 24.0052 60.9534 20.6655Z" fill="white"/>
<path d="M3.74928 25.3948V6.18621L10.9847 13.5828L6.64347 18.0655C6.44614 18.2672 6.29266 18.5138 6.18303 18.7603C6.0734 19.0069 6.02955 19.2759 6.02955 19.5448C6.02955 19.8138 6.0734 20.0828 6.18303 20.3293C6.29266 20.5759 6.44614 20.8224 6.64347 21.0241L11.3575 25.8431C11.4452 25.9328 11.5548 25.9776 11.6864 25.9776H15.6768C16.0934 25.9776 16.3127 25.4621 16.0057 25.1483L10.4805 19.5672L14.9533 14.9948C15.1287 14.7931 15.2822 14.569 15.3699 14.3448C15.4576 14.0983 15.5014 13.8517 15.5014 13.6052C15.5014 13.3586 15.4576 13.1121 15.3699 12.8655C15.2822 12.619 15.1287 12.3948 14.9533 12.2155L14.9314 12.1931L3.63966 0.627586C3.44233 0.425862 3.20114 0.246552 2.93804 0.156897C2.67493 0.0448276 2.38989 0 2.12679 0C1.86368 0 1.60057 0.0448276 1.33746 0.156897C1.16206 0.224138 0.986654 0.336207 0.833174 0.448276C0.591992 0.65 0.372736 0.896552 0.241182 1.18793C0.15348 1.34483 0.0877026 1.50172 0.0657769 1.68103C0.0219256 1.83793 0 2.01724 0 2.17414V25.3948C0 25.731 0.263108 26 0.591992 26H3.15729C3.48618 26 3.74928 25.731 3.74928 25.3948Z" fill="url(#paint0_linear)"/>
</g>
<defs>
<linearGradient id="paint0_linear" x1="10.5317" y1="2.85742" x2="3.88156" y2="30.9231" gradientUnits="userSpaceOnUse">
<stop stop-color="#0480FE"/>
<stop offset="1" stop-color="#00E27E"/>
</linearGradient>
<clipPath id="clip0">
<rect width="69" height="26" fill="white"/>
</clipPath>
</defs>
</svg>
