<svg width="69" height="26" viewBox="0 0 69 26" fill="none" xmlns="http://www.w3.org/2000/svg">
<g clip-path="url(#clip0)">
<path d="M18.001 19.5224V16.4742C18.001 14.7707 18.6368 13.3138 19.9304 12.081C21.2021 10.8483 22.7588 10.2207 24.5567 10.2207C26.2669 10.2207 27.7579 10.781 28.9857 11.9017C30.2136 13.0224 30.8275 14.4345 30.8275 16.1155C30.8275 16.7655 30.7617 17.3035 30.6082 17.7069C30.4547 18.1104 30.2355 18.4017 29.9066 18.5586C29.5996 18.7155 29.2927 18.8276 29.0296 18.8724C28.7665 18.9173 28.3937 18.9397 27.9552 18.9397H21.3117V19.6793C21.3117 20.7552 21.6845 21.6293 22.4519 22.2569C23.1974 22.8845 24.184 23.2207 25.4118 23.2207C26.2669 23.2207 27.0782 23.019 27.8456 22.6155C28.613 22.2121 29.0734 22.0104 29.2488 22.0104C29.5996 22.0104 29.9066 22.1897 30.1697 22.5259C30.4109 22.8621 30.5424 23.1983 30.5424 23.5345C30.5424 24.0724 30.0382 24.6104 29.0296 25.1483C28.021 25.6862 26.7932 25.9552 25.3241 25.9552C23.1754 25.9552 21.4433 25.3724 20.062 24.1845C18.6807 22.9966 18.001 21.45 18.001 19.5224ZM21.3117 16.7879H26.5301C26.9905 16.7879 27.2975 16.7207 27.4509 16.6086C27.6044 16.4742 27.6921 16.2276 27.6921 15.8466C27.6921 14.9948 27.3852 14.2776 26.7712 13.6948C26.1573 13.1121 25.4118 12.7983 24.5129 12.7983C23.6359 12.7983 22.8685 13.0673 22.2546 13.6276C21.6187 14.1879 21.3117 14.9052 21.3117 15.7569V16.7879Z" fill="#030F29"/>
<path d="M33.7654 24.543V2.443C33.7654 2.12921 33.9189 1.86024 34.2258 1.65852C34.5328 1.4568 34.9274 1.34473 35.4098 1.34473C35.8702 1.34473 36.2649 1.4568 36.5938 1.65852C36.9227 1.86024 37.0761 2.12921 37.0761 2.443V24.543C37.0761 24.812 36.9007 25.0809 36.5719 25.3051C36.243 25.5516 35.8483 25.6637 35.4098 25.6637C34.9494 25.6637 34.5547 25.5516 34.2477 25.3051C33.9189 25.0809 33.7654 24.8344 33.7654 24.543Z" fill="#030F29"/>
<path d="M40.5186 4.84125C40.5186 4.34814 40.7159 3.92228 41.0886 3.58607C41.4614 3.24987 41.9218 3.07056 42.448 3.07056C42.9742 3.07056 43.4127 3.24987 43.8074 3.58607C44.1801 3.92228 44.3775 4.34814 44.3775 4.84125C44.3775 5.31194 44.1801 5.71538 43.8074 6.07401C43.4347 6.43263 42.9742 6.61194 42.448 6.61194C41.9218 6.61194 41.4833 6.43263 41.0886 6.07401C40.7159 5.71538 40.5186 5.31194 40.5186 4.84125ZM40.8036 24.543V11.5206C40.8036 11.2068 40.9571 10.9378 41.264 10.7361C41.571 10.5344 41.9656 10.4223 42.448 10.4223C42.9304 10.4223 43.325 10.5344 43.6539 10.7361C43.9609 10.9378 44.1363 11.2068 44.1363 11.5206V24.543C44.1363 24.8119 43.9828 25.0809 43.6539 25.305C43.325 25.5516 42.9304 25.6637 42.4699 25.6637C42.0095 25.6637 41.6148 25.5516 41.3079 25.305C40.979 25.0809 40.8036 24.8344 40.8036 24.543Z" fill="#030F29"/>
<path d="M47.0745 19.5224V16.631C47.0745 14.7259 47.6226 13.1793 48.7189 11.9914C49.8152 10.8035 51.4377 10.2207 53.5864 10.2207C54.9458 10.2207 56.0859 10.4673 57.0068 10.9379C57.9276 11.431 58.3881 11.969 58.3881 12.5517C58.3881 12.9104 58.2565 13.2914 57.9934 13.65C57.7303 14.0086 57.4234 14.1879 57.0725 14.1879C56.9629 14.1879 56.5902 14.031 55.9543 13.6948C55.3185 13.381 54.6169 13.2017 53.8276 13.2017C51.5254 13.2017 50.3633 14.3224 50.3633 16.5862V19.4552C50.3633 21.719 51.5254 22.8397 53.8495 22.8397C54.6388 22.8397 55.3623 22.6604 55.9982 22.3242C56.634 21.9879 57.0287 21.8086 57.1383 21.8086C57.5549 21.8086 57.9057 21.9879 58.1688 22.3242C58.4319 22.6604 58.5635 23.0414 58.5635 23.4224C58.5635 24.0276 58.0811 24.5879 57.1164 25.1035C56.1517 25.619 54.9677 25.8655 53.5864 25.8655C51.3938 25.8655 49.7713 25.2828 48.675 24.1173C47.6226 23.019 47.0745 21.4724 47.0745 19.5224Z" fill="#030F29"/>
<path d="M60.9534 20.6655V4.54998C60.9534 4.2586 61.1288 3.98964 61.4577 3.78791C61.7865 3.56378 62.1812 3.47412 62.5978 3.47412C63.0144 3.47412 63.409 3.58619 63.7379 3.78791C64.0887 4.01205 64.2641 4.2586 64.2641 4.54998V10.4448H68.1011C68.3642 10.4448 68.5835 10.5793 68.7589 10.8258C68.9343 11.0724 69.0001 11.3638 69.0001 11.7C69.0001 12.0362 68.9124 12.3276 68.7589 12.5741C68.5835 12.8207 68.3642 12.9552 68.1011 12.9552H64.2422V20.6655C64.2422 21.4276 64.3957 21.9879 64.7246 22.3017C65.0535 22.6155 65.6235 22.7948 66.4348 22.7948H67.5311C67.9696 22.7948 68.3204 22.9293 68.5616 23.2207C68.8028 23.4896 68.9343 23.8483 68.9343 24.2517C68.9343 24.6552 68.8028 25.0138 68.5616 25.2827C68.3204 25.5517 67.9696 25.7086 67.5311 25.7086H66.4348C62.7732 25.6862 60.9534 24.0052 60.9534 20.6655Z" fill="#030F29"/>
<path d="M3.74928 25.3948V6.18621L10.9847 13.5828L6.64347 18.0655C6.44614 18.2672 6.29266 18.5138 6.18303 18.7603C6.0734 19.0069 6.02955 19.2759 6.02955 19.5448C6.02955 19.8138 6.0734 20.0828 6.18303 20.3293C6.29266 20.5759 6.44614 20.8224 6.64347 21.0241L11.3575 25.8431C11.4452 25.9328 11.5548 25.9776 11.6864 25.9776H15.6768C16.0934 25.9776 16.3127 25.4621 16.0057 25.1483L10.4805 19.5672L14.9533 14.9948C15.1287 14.7931 15.2822 14.569 15.3699 14.3448C15.4576 14.0983 15.5014 13.8517 15.5014 13.6052C15.5014 13.3586 15.4576 13.1121 15.3699 12.8655C15.2822 12.619 15.1287 12.3948 14.9533 12.2155L14.9314 12.1931L3.63966 0.627586C3.44233 0.425862 3.20114 0.246552 2.93804 0.156897C2.67493 0.0448276 2.38989 0 2.12679 0C1.86368 0 1.60057 0.0448276 1.33746 0.156897C1.16206 0.224138 0.986654 0.336207 0.833174 0.448276C0.591992 0.65 0.372736 0.896552 0.241182 1.18793C0.15348 1.34483 0.0877026 1.50172 0.0657769 1.68103C0.0219256 1.83793 0 2.01724 0 2.17414V25.3948C0 25.731 0.263108 26 0.591992 26H3.15729C3.48618 26 3.74928 25.731 3.74928 25.3948Z" fill="url(#paint0_linear)"/>
</g>
<defs>
<linearGradient id="paint0_linear" x1="10.5317" y1="2.85742" x2="3.88156" y2="30.9231" gradientUnits="userSpaceOnUse">
<stop stop-color="#0480FE"/>
<stop offset="1" stop-color="#00E27E"/>
</linearGradient>
<clipPath id="clip0">
<rect width="69" height="26" fill="white"/>
</clipPath>
</defs>
</svg>
