<svg width="124" height="206" viewBox="0 0 124 206" fill="none" xmlns="http://www.w3.org/2000/svg">
<path d="M28.7879 200.922L28.7879 49.4692L84.3434 107.788L51.0101 143.133C49.495 144.724 48.3165 146.667 47.4748 148.611C46.633 150.555 46.2963 152.676 46.2963 154.797C46.2963 156.917 46.633 159.038 47.4748 160.982C48.3165 162.926 49.495 164.87 51.0101 166.461L87.2054 204.456C87.8788 205.163 88.7205 205.517 89.7306 205.517H120.37C123.569 205.517 125.253 201.452 122.896 198.978L80.4714 154.974L114.815 118.922C116.162 117.331 117.34 115.564 118.013 113.797C118.687 111.853 119.024 109.909 119.024 107.965C119.024 106.021 118.687 104.077 118.013 102.133C117.34 100.189 116.162 98.4218 114.815 97.008L114.646 96.8313L27.9461 5.64164C26.431 4.05112 24.5791 2.63732 22.5589 1.93043C20.5387 1.04681 18.3502 0.693359 16.33 0.693359C14.3098 0.693359 12.2896 1.04681 10.2694 1.93043C8.92256 2.4606 7.57576 3.34422 6.39731 4.22784C4.54545 5.81836 2.86195 7.76233 1.85185 10.0597C1.17845 11.2968 0.673401 12.5339 0.505051 13.9477C0.16835 15.1847 0 16.5985 0 17.8356L0 200.922C0 203.573 2.0202 205.693 4.54546 205.693H24.2424C26.7677 205.693 28.7879 203.573 28.7879 200.922Z" fill="url(#paint0_linear)"/>
<defs>
<linearGradient id="paint0_linear" x1="80.8647" y1="23.223" x2="27.1772" y2="243.871" gradientUnits="userSpaceOnUse">
<stop stop-color="#0480FE"/>
<stop offset="1" stop-color="#00E27E"/>
</linearGradient>
</defs>
</svg>
