<svg width="42" height="42" viewBox="0 0 42 42" fill="none" xmlns="http://www.w3.org/2000/svg">
<path d="M21.0755 38.4682C11.4884 38.4682 3.71704 30.6968 3.71704 21.1097C3.71704 11.5226 11.4884 3.75119 21.0755 3.75119C30.6626 3.75119 38.434 11.5226 38.434 21.1097C38.434 30.6968 30.6626 38.4682 21.0755 38.4682ZM15.0001 24.5814V28.0531H19.3397V31.5248H22.8114V28.0531H24.5472C25.6982 28.0531 26.802 27.5959 27.6158 26.782C28.4296 25.9682 28.8869 24.8644 28.8869 23.7135C28.8869 22.5625 28.4296 21.4587 27.6158 20.6449C26.802 19.831 25.6982 19.3738 24.5472 19.3738H17.6038C17.3736 19.3738 17.1529 19.2824 16.9901 19.1196C16.8274 18.9569 16.7359 18.7361 16.7359 18.5059C16.7359 18.2757 16.8274 18.055 16.9901 17.8922C17.1529 17.7294 17.3736 17.638 17.6038 17.638H27.151V14.1663H22.8114V10.6946H19.3397V14.1663H17.6038C16.4529 14.1663 15.3491 14.6235 14.5353 15.4373C13.7214 16.2512 13.2642 17.355 13.2642 18.5059C13.2642 19.6568 13.7214 20.7606 14.5353 21.5745C15.3491 22.3883 16.4529 22.8455 17.6038 22.8455H24.5472C24.7774 22.8455 24.9982 22.937 25.1609 23.0997C25.3237 23.2625 25.4152 23.4833 25.4152 23.7135C25.4152 23.9436 25.3237 24.1644 25.1609 24.3272C24.9982 24.4899 24.7774 24.5814 24.5472 24.5814H15.0001Z" fill="#0D1B39"/>
</svg>
