<svg width="72" height="72" viewBox="0 0 72 72" fill="none" xmlns="http://www.w3.org/2000/svg">
<rect width="72" height="72" rx="36" fill="url(#paint0_linear)"/>
<path d="M29.6981 48.2606H25.1415C24.3358 48.2606 23.5632 47.9405 22.9935 47.3708C22.4238 46.8012 22.1038 46.0285 22.1038 45.2228V26.9964C22.1038 26.1908 22.4238 25.4181 22.9935 24.8484C23.5632 24.2787 24.3358 23.9587 25.1415 23.9587H29.6981C30.5038 23.9587 31.2764 24.2787 31.8461 24.8484C32.4158 25.4181 32.7358 26.1908 32.7358 26.9964V45.2228C32.7358 46.0285 32.4158 46.8012 31.8461 47.3708C31.2764 47.9405 30.5038 48.2606 29.6981 48.2606ZM41.849 33.0719H47.9245C48.7302 33.0719 49.5028 32.7518 50.0725 32.1822C50.6422 31.6125 50.9623 30.8398 50.9623 30.0342V25.4776C50.9623 24.6719 50.6422 23.8992 50.0725 23.3296C49.5028 22.7599 48.7302 22.4398 47.9245 22.4398H41.849C41.0434 22.4398 40.2707 22.7599 39.701 23.3296C39.1314 23.8992 38.8113 24.6719 38.8113 25.4776V30.0342C38.8113 30.8398 39.1314 31.6125 39.701 32.1822C40.2707 32.7518 41.0434 33.0719 41.849 33.0719ZM49.4434 48.2606V39.1474C49.4434 38.3417 49.1233 37.569 48.5536 36.9994C47.984 36.4297 47.2113 36.1096 46.4056 36.1096H38.8113C38.0056 36.1096 37.233 36.4297 36.6633 36.9994C36.0936 37.569 35.7736 38.3417 35.7736 39.1474V48.2606C35.7736 49.0662 36.0936 49.8389 36.6633 50.4086C37.233 50.9783 38.0056 51.2983 38.8113 51.2983H46.4056C47.2113 51.2983 47.984 50.9783 48.5536 50.4086C49.1233 49.8389 49.4434 49.0662 49.4434 48.2606Z" fill="white"/>
<defs>
<linearGradient id="paint0_linear" x1="46.9537" y1="7.91286" x2="35.1289" y2="88.2565" gradientUnits="userSpaceOnUse">
<stop stop-color="#0480FE"/>
<stop offset="1" stop-color="#00E27E"/>
</linearGradient>
</defs>
</svg>
