<svg width="72" height="72" viewBox="0 0 72 72" fill="none" xmlns="http://www.w3.org/2000/svg">
<rect width="72" height="72" rx="36" fill="url(#paint0_linear)"/>
<g clip-path="url(#clip0)">
<path d="M36.6856 24.928C36.3297 24.9248 35.9751 24.9704 35.6316 25.0634C35.1612 25.1767 34.4439 25.625 34.0193 26.0497C33.3256 26.7653 33.1903 27.08 32.8993 28.535C32.7639 29.2506 33.5929 30.9543 34.3322 31.4686C35.0936 32.0049 36.1679 32.3179 37.8259 32.4972C40.2435 32.7679 40.9388 33.5732 40.9388 36.2142C40.9388 38.5438 40.2875 39.1698 37.6228 39.4388C34.7349 39.7298 33.2579 40.8498 32.9449 43.0204C32.7656 44.3417 33.6386 45.998 34.8482 46.558C37.6008 47.8573 40.1775 46.223 40.7138 42.8427C41.0708 40.6704 41.7661 40.0648 44.0941 39.8871C46.7807 39.6621 48.1697 38.7451 48.684 36.8638C49.1543 35.1382 48.1697 33.2146 46.4897 32.5429C46.043 32.3636 45.0127 32.1403 44.2057 32.0506C41.6764 31.7799 41.0268 31.3333 40.7578 29.699C40.3771 27.437 40.2215 27.0563 39.4145 26.163C39.0717 25.7773 38.6516 25.4679 38.1814 25.2551C37.7113 25.0424 37.2016 24.9309 36.6856 24.928ZM28.5902 32.3044C28.3077 32.2986 28.0255 32.3259 27.7494 32.3856C25.2641 32.9236 24.0781 35.8555 25.4654 37.9601C27.4584 40.9614 32.1379 39.5724 32.1819 35.9689C32.2022 33.9505 30.5239 32.3433 28.5902 32.3044ZM19.7183 39.6875C19.4752 39.6934 19.2332 39.7228 18.9959 39.7755C15.3449 40.5808 15.2112 45.91 18.8165 46.8507C19.7132 47.096 19.8012 47.096 20.6961 46.8727C22.7111 46.3347 23.8531 44.4094 23.3168 42.4621C22.8464 40.7364 21.3813 39.6469 19.7183 39.6875ZM53.257 39.701C52.8628 39.7044 52.45 39.7991 51.9306 39.9751C49.579 40.7821 48.7736 43.5144 50.2726 45.619C51.2149 46.9623 53.5886 47.409 55.0435 46.492C57.4392 45.0133 57.3495 41.3201 54.8862 40.1544C54.2433 39.8397 53.7645 39.6959 53.257 39.701Z" fill="white"/>
</g>
<defs>
<linearGradient id="paint0_linear" x1="46.9537" y1="7.91286" x2="35.1289" y2="88.2565" gradientUnits="userSpaceOnUse">
<stop stop-color="#0480FE"/>
<stop offset="1" stop-color="#00E27E"/>
</linearGradient>
<clipPath id="clip0">
<rect width="40.6038" height="40.6038" fill="white" transform="translate(16.184 15.6804)"/>
</clipPath>
</defs>
</svg>
