<svg width="72" height="72" viewBox="0 0 72 72" fill="none" xmlns="http://www.w3.org/2000/svg">
<rect width="72" height="72" rx="36" fill="url(#paint0_linear)"/>
<path d="M36 38.2266C31.7034 38.2266 28.207 41.7229 28.207 46.0195C28.207 50.3161 31.7034 53.8124 36 53.8124C40.2965 53.8124 43.7929 50.3161 43.7929 46.0195C43.7929 41.7229 40.2965 38.2266 36 38.2266ZM40.4531 47.1328H36C35.3846 47.1328 34.8867 46.6348 34.8867 46.0195V41.5664C34.8867 40.951 35.3846 40.4531 36 40.4531C36.6153 40.4531 37.1132 40.951 37.1132 41.5664V44.9062H40.4531C41.0684 44.9062 41.5663 45.4041 41.5663 46.0195C41.5663 46.6348 41.0684 47.1328 40.4531 47.1328Z" fill="white"/>
<path d="M23.754 22.6407C21.298 22.6407 19.3009 24.6378 19.3009 27.0938C19.3009 29.5497 21.298 31.5469 23.754 31.5469C26.21 31.5469 28.2071 29.5497 28.2071 27.0938C28.2071 24.6378 26.21 22.6407 23.754 22.6407Z" fill="white"/>
<path d="M48.2461 22.6407C45.7901 22.6407 43.793 24.6378 43.793 27.0938C43.793 29.5497 45.7901 31.5469 48.2461 31.5469C50.702 31.5469 52.6992 29.5497 52.6992 27.0938C52.6992 24.6378 50.702 22.6407 48.2461 22.6407Z" fill="white"/>
<path d="M36 18.1876C32.9308 18.1876 30.4336 20.6848 30.4336 23.754C30.4336 26.8231 32.9308 29.3203 36 29.3203C39.0691 29.3203 41.5663 26.8231 41.5663 23.754C41.5663 20.6848 39.0691 18.1876 36 18.1876Z" fill="white"/>
<path d="M48.2462 31.5469C47.3939 31.5469 46.5748 31.7523 45.7992 32.0609C47.3556 34.1306 48.2462 36.6613 48.2462 39.3398V43.7929C48.2462 44.1851 48.1659 44.5563 48.0411 44.9062H53.8868C54.5021 44.9062 55 44.4083 55 43.7929V38.2266C55 34.5432 51.9296 31.5469 48.2462 31.5469Z" fill="white"/>
<path d="M23.754 39.3398C23.754 36.6608 24.6467 34.1314 26.2033 32.0618C25.427 31.7525 24.6071 31.5469 23.754 31.5469C20.0706 31.5469 17.0001 34.5432 17.0001 38.2266V43.7929C17.0001 44.4083 17.4981 44.9062 18.1134 44.9062H23.9591C23.8343 44.5563 23.754 44.1851 23.754 43.7929V39.3398Z" fill="white"/>
<path d="M35.9999 29.3203C30.7365 29.3203 25.9805 33.6805 25.9805 39.3398V43.7929C25.9805 43.9993 26.0516 44.1818 26.1494 44.3476C26.9509 39.6198 31.0474 36 35.9999 36C40.9525 36 45.049 39.6198 45.8505 44.3476C45.9483 44.1818 46.0194 43.9993 46.0194 43.7929V39.3398C46.0194 33.7214 41.3058 29.3203 35.9999 29.3203ZM35.9999 35.1063L33.8527 31.8856C34.5395 31.687 35.2502 31.5469 35.9999 31.5469C36.7497 31.5469 37.4604 31.687 38.1472 31.8856L35.9999 35.1063Z" fill="white"/>
<defs>
<linearGradient id="paint0_linear" x1="46.9537" y1="7.91286" x2="35.1289" y2="88.2565" gradientUnits="userSpaceOnUse">
<stop stop-color="#0480FE"/>
<stop offset="1" stop-color="#00E27E"/>
</linearGradient>
</defs>
</svg>
