<svg width="72" height="72" viewBox="0 0 72 72" fill="none" xmlns="http://www.w3.org/2000/svg">
<rect width="72" height="72" rx="36" fill="url(#paint0_linear)"/>
<path d="M36 38.5C37.3807 38.5 38.5 37.3807 38.5 36C38.5 34.6193 37.3807 33.5 36 33.5C34.6193 33.5 33.5 34.6193 33.5 36C33.5 37.3807 34.6193 38.5 36 38.5Z" fill="white"/>
<path d="M52.4833 33.2L51.1666 29C51.0244 28.5146 50.786 28.0628 50.4654 27.6715C50.1449 27.2803 49.7488 26.9576 49.3008 26.7227C48.8529 26.4878 48.3622 26.3456 47.8581 26.3045C47.354 26.2633 46.8467 26.3242 46.3666 26.4833L45.7999 26.6666C45.356 26.8134 44.8832 26.8506 44.4218 26.7752C43.9603 26.6997 43.524 26.5138 43.1499 26.2333L42.9666 26.1C42.6016 25.8206 42.3073 25.4594 42.1076 25.0454C41.9078 24.6314 41.8081 24.1762 41.8166 23.7166V23.25C41.8247 22.2034 41.4171 21.1963 40.6833 20.45C40.3342 20.0974 39.919 19.8172 39.4613 19.6256C39.0037 19.434 38.5127 19.3346 38.0166 19.3333H33.7666C32.7469 19.3465 31.7737 19.762 31.0589 20.4893C30.344 21.2166 29.9455 22.1969 29.9499 23.2166V23.6166C29.9483 24.1004 29.8382 24.5777 29.6276 25.0133C29.4171 25.4488 29.1114 25.8316 28.7333 26.1333L28.5166 26.3C28.0988 26.616 27.6102 26.8252 27.0932 26.9095C26.5762 26.9937 26.0464 26.9504 25.5499 26.7833C25.094 26.6255 24.6107 26.5619 24.1294 26.5963C23.6482 26.6306 23.1789 26.7623 22.7499 26.9833C22.3034 27.205 21.9072 27.5161 21.586 27.8975C21.2649 28.2788 21.0257 28.7222 20.8833 29.2L19.5166 33.5333C19.1997 34.5103 19.281 35.5729 19.7428 36.4903C20.2046 37.4077 21.0097 38.1059 21.9833 38.4333H22.2499C22.699 38.6016 23.1021 38.8734 23.4264 39.2267C23.7508 39.58 23.9872 40.0048 24.1166 40.4666L24.2166 40.7333C24.4024 41.2435 24.4645 41.7905 24.3979 42.3294C24.3313 42.8683 24.1378 43.3837 23.8333 43.8333C23.217 44.6726 22.957 45.7214 23.1099 46.7513C23.2629 47.7813 23.8163 48.7093 24.6499 49.3333L28.0999 51.95C28.7532 52.4249 29.5423 52.6763 30.3499 52.6666C30.5661 52.6878 30.7838 52.6878 30.9999 52.6666C31.5001 52.5698 31.9753 52.3721 32.3965 52.0856C32.8178 51.799 33.1762 51.4296 33.4499 51L33.8333 50.45C34.1022 50.0643 34.458 49.7472 34.872 49.5242C35.286 49.3013 35.7466 49.1788 36.2166 49.1666C36.7092 49.1545 37.1968 49.2674 37.634 49.4947C38.0712 49.722 38.4436 50.0564 38.7166 50.4666L38.9166 50.75C39.2008 51.1729 39.5685 51.5331 39.9971 51.8086C40.4258 52.084 40.9063 52.2688 41.409 52.3516C41.9118 52.4343 42.4261 52.4133 42.9204 52.2897C43.4148 52.1662 43.8785 51.9428 44.2833 51.6333L47.6666 49.1C48.4666 48.4787 48.9985 47.5749 49.1535 46.574C49.3084 45.573 49.0746 44.5507 48.4999 43.7166L48.0666 43.0833C47.806 42.6807 47.6354 42.2266 47.5664 41.752C47.4973 41.2774 47.5315 40.7935 47.6666 40.3333C47.8043 39.8407 48.0599 39.3891 48.4112 39.0174C48.7626 38.6457 49.1992 38.3651 49.6833 38.2L50.0166 38.0833C50.9811 37.7486 51.7777 37.052 52.238 36.1407C52.6983 35.2295 52.7863 34.1749 52.4833 33.2ZM35.9999 41.8333C34.8462 41.8333 33.7184 41.4912 32.7591 40.8502C31.7998 40.2092 31.0521 39.2982 30.6106 38.2323C30.1691 37.1664 30.0536 35.9935 30.2787 34.862C30.5038 33.7304 31.0593 32.691 31.8751 31.8752C32.691 31.0594 33.7304 30.5038 34.8619 30.2787C35.9935 30.0537 37.1664 30.1692 38.2323 30.6107C39.2982 31.0522 40.2092 31.7999 40.8502 32.7592C41.4912 33.7184 41.8333 34.8463 41.8333 36C41.8333 37.5471 41.2187 39.0308 40.1247 40.1248C39.0308 41.2187 37.547 41.8333 35.9999 41.8333Z" fill="white"/>
<defs>
<linearGradient id="paint0_linear" x1="46.9537" y1="7.91286" x2="35.1289" y2="88.2565" gradientUnits="userSpaceOnUse">
<stop stop-color="#0480FE"/>
<stop offset="1" stop-color="#00E27E"/>
</linearGradient>
</defs>
</svg>
