<svg width="72" height="72" viewBox="0 0 72 72" fill="none" xmlns="http://www.w3.org/2000/svg">
<rect width="72" height="72" rx="36" fill="url(#paint0_linear)"/>
<path d="M36 52.6667C26.795 52.6667 19.3334 45.205 19.3334 36C19.3334 26.795 26.795 19.3334 36 19.3334C45.205 19.3334 52.6667 26.795 52.6667 36C52.6667 45.205 45.205 52.6667 36 52.6667ZM30.1667 39.3334V42.6667H34.3334V46H37.6667V42.6667H39.3334C40.4384 42.6667 41.4983 42.2277 42.2797 41.4463C43.0611 40.6649 43.5 39.6051 43.5 38.5C43.5 37.395 43.0611 36.3352 42.2797 35.5538C41.4983 34.7724 40.4384 34.3334 39.3334 34.3334H32.6667C32.4457 34.3334 32.2337 34.2456 32.0775 34.0893C31.9212 33.933 31.8334 33.7211 31.8334 33.5C31.8334 33.279 31.9212 33.0671 32.0775 32.9108C32.2337 32.7545 32.4457 32.6667 32.6667 32.6667H41.8334V29.3334H37.6667V26H34.3334V29.3334H32.6667C31.5616 29.3334 30.5018 29.7724 29.7204 30.5538C28.939 31.3352 28.5 32.395 28.5 33.5C28.5 34.6051 28.939 35.6649 29.7204 36.4463C30.5018 37.2277 31.5616 37.6667 32.6667 37.6667H39.3334C39.5544 37.6667 39.7663 37.7545 39.9226 37.9108C40.0789 38.0671 40.1667 38.279 40.1667 38.5C40.1667 38.7211 40.0789 38.933 39.9226 39.0893C39.7663 39.2456 39.5544 39.3334 39.3334 39.3334H30.1667Z" fill="white"/>
<defs>
<linearGradient id="paint0_linear" x1="46.9537" y1="7.91286" x2="35.1289" y2="88.2565" gradientUnits="userSpaceOnUse">
<stop stop-color="#0480FE"/>
<stop offset="1" stop-color="#00E27E"/>
</linearGradient>
</defs>
</svg>
