<svg width="51" height="51" viewBox="0 0 51 51" fill="none" xmlns="http://www.w3.org/2000/svg">
<circle cx="25.5" cy="25.5" r="25" stroke="#030F29"/>
<path d="M31.5749 28.2C33.8159 28.2 35.6249 30.009 35.6249 32.25C35.6249 34.491 33.8159 36.3 31.5749 36.3C29.3339 36.3 27.5249 34.491 27.5249 32.25C27.5249 31.926 27.5654 31.629 27.6464 31.3185L21.7334 28.2135C20.991 29.037 19.938 29.55 18.75 29.55C16.509 29.55 14.7 27.741 14.7 25.5C14.7 23.259 16.509 21.45 18.75 21.45C19.938 21.45 20.991 21.9765 21.7334 22.7865L27.6464 19.6815C27.5654 19.371 27.5249 19.074 27.5249 18.75C27.5249 16.509 29.3339 14.7 31.5749 14.7C33.8159 14.7 35.6249 16.509 35.6249 18.75C35.6249 20.991 33.8159 22.8 31.5749 22.8C30.3869 22.8 29.3339 22.2735 28.5914 21.4635L22.6784 24.5685C22.842 25.1787 22.842 25.8213 22.6784 26.4315L28.5914 29.5365C29.3339 28.713 30.3869 28.2 31.5749 28.2Z" fill="#030F29"/>
</svg>
